<?xml version="1.0" standalone="no"?>
<!DOCTYPE svg PUBLIC "-//W3C//DTD SVG 1.1//EN" "http://www.w3.org/Graphics/SVG/1.1/DTD/svg11.dtd">
<svg xmlns="http://www.w3.org/2000/svg">
<metadata>Copyright (C) 2017 by original authors @ fontello.com</metadata>
<defs>
<font id="fontello" horiz-adv-x="1000" >
<font-face font-family="fontello" font-weight="400" font-stretch="normal" units-per-em="1000" ascent="850" descent="-150" />
<missing-glyph horiz-adv-x="1000" />
<glyph glyph-name="cart" unicode="&#xe800;" d="M1000 38l-875 0 0 250 0 406 0 94-125 0 0 62 188 0 750 0c34 0 62-28 62-62l0-500c0-35-28-63-62-63l-750 0 0-125 812 0 0-62z m-781 250l687 0c18 0 32 14 32 31l0 437c0 18-14 32-32 32l-687 0c-17 0-31-15-31-32l0-437c0-17 14-31 31-31l0 0z m94-313c34 0 62-28 62-63 0-34-28-62-62-62-35 0-63 28-63 62 0 35 28 63 63 63l0 0z m437 0c35 0 63-28 63-63 0-34-28-62-63-62-35 0-62 28-62 62 0 35 27 63 62 63l0 0z" horiz-adv-x="1000" />

<glyph glyph-name="mobile" unicode="&#xe801;" d="M313-150c-69 0-125 56-125 125l0 188 0 62 0 375 0 63 0 62c0 69 56 125 125 125l375 0c69 0 125-56 125-125l0-62 0-63 0-375 0-62 0-188c0-69-56-125-125-125l-375 0z m437 875c0 35-28 63-62 63l-375 0c-35 0-63-28-63-63l0-62 500 0 0 62 0 0z m0-125l-500 0 0-437 500 0 0 437 0 0z m-500-625c0-34 28-62 63-62l375 0c34 0 62 28 62 62l0 125-500 0 0-125z m250 0c-35 0-62 14-62 31 0 18 27 32 62 32 35 0 63-14 63-32 0-17-28-31-63-31l0 0z" horiz-adv-x="1000" />

<glyph glyph-name="iphone" unicode="&#xe802;" d="M688-150l-375 0c-104 0-188 84-188 187l0 626c0 103 84 187 188 187l375 0c103 0 187-84 187-187l0-626c0-103-84-187-187-187l0 0z m125 813c0 68-57 125-125 125l-375 0c-69 0-125-57-125-125l0-626c0-69 56-125 125-125l375 0c68 0 125 56 125 125l0 626 0 0z m-219 0l-188 0c-17 0-31 14-31 31 0 17 14 31 31 31l188 0c17 0 31-14 31-31 0-17-14-31-31-31l0 0z m-94-563c35 0 63-28 63-62 0-35-28-63-63-63-35 0-62 28-62 63 0 34 27 62 62 62l0 0z" horiz-adv-x="1000" />

<glyph glyph-name="male" unicode="&#xe803;" d="M1000-88c0-34-28-62-62-62l-813 0c-35 0-62 28-62 62l0 719c0 35 27 94 62 94l125 0 0 63c0 34 28 62 63 62l437 0c35 0 63-28 63-62l0-63 125 0c34 0 62-28 62-63l0-750 0 0z m-250 802l-170-170 139-69c17 0 31 14 31 31l0 208 0 0z m-500-239l0 187-62 0c-63 0-63-45-63-62l0-656c0-18 14-32 31-32l344 0 0 581-187-81c-35 0-63 28-63 63l0 0z m63 31c0-17 14-31 31-31l138 69-169 170 0-208 0 0z m31 282c-7 0-12-3-17-6 1-1 3-1 5-3l199-199 199 199c2 1 5 1 7 2-5 4-11 7-18 7l-375 0 0 0z m594-188c0 17 0 62-63 62l-62 0 0-187c0-35-28-63-63-63l-187 81 0-581 343 0c17 0 32 14 32 32l0 656 0 0z m-313-313l250 0 0-62-250 0 0 62 0 0z" horiz-adv-x="1000" />

<glyph glyph-name="female" unicode="&#xe804;" d="M691 740c-11 14-21 25-28 31l-35 29-14-44c-2-7-8-19-21-32-21-22-50-61-93-61-42 0-72 39-93 61-13 13-19 25-21 32l-13 44-35-29c-8-6-18-17-29-31-37-54-41-118 11-179 2-2 4-4 5-6 28-38 27-76 9-115-6-10-10-17-13-21-4-3-15-14-29-29-23-26-45-54-67-84-64-92-102-184-100-273 2-63 25-122 71-173l9-10 13 0 282 0 282 0 13 0 10 10c45 51 68 110 70 173 2 89-36 181-100 273-21 30-44 58-67 84-14 15-25 26-31 32 0 1-5 8-10 18-19 39-20 77 8 115 2 2 3 4 5 6 53 61 49 125 11 179z m-55-30c2-2 3-4 5-7 23-32 25-64-7-101-2-3-5-6-8-9-44-59-42-123-14-181 7-15 15-26 20-33 8-8 18-18 31-32 21-23 42-49 62-78 58-81 91-161 89-234-1-49-19-93-54-133l22 10-282 0-282 0 23-10c-36 40-53 84-55 133-2 73 32 153 89 234 20 29 41 55 62 78 13 14 23 24 28 29 8 10 16 21 23 36 29 58 30 122-14 181-3 3-5 6-8 9-32 37-30 69-7 101 2 3 4 5 5 7l14 0 0 31 0 78 0 31-61 0 0-31 0-78 0-31 23 0c6-9 13-20 23-30 32-33 78-78 137-78 59 0 105 45 137 78 10 10 17 21 23 30l23 0 0 31 0 78 0 31-61 0 0-31 0-78 0-31 14 0z" horiz-adv-x="1000" />

<glyph glyph-name="child" unicode="&#xe805;" d="M279 639c36-65 105-133 221-133 116 0 185 68 221 133l203-102-29-148-207 24 0-63 0-375-188 0-187 0 0 375 0 63-208-24-29 148 203 102 0 0z m409 86c0 0-32-156-188-156-156 0-187 156-187 156l-313-156 63-250 187 31 0-438 250 0 250 0 0 438 188-31 62 250-312 156 0 0 0 0z" horiz-adv-x="1000" />

<glyph glyph-name="house" unicode="&#xe806;" d="M476 841c7 7 15 9 24 9 8 0 17-2 23-9l467-374c13-12 13-33 0-45-12-13-32-13-45 0l-9 7 0-517c0-34-28-62-62-62l-125 0-312 0-311 0c-35 0-63 28-63 62l0 517-9-7c-12-13-32-13-45 0-12 12-12 32 0 45l467 374 0 0z m24-929l187 0 0 375-187 0 0-375 0 0z m374 567l-374 300-374-300 0-536c0-17 14-31 31-31l280 0 0 438 312 0 0-438 94 0c17 0 31 14 31 31l0 536 0 0z m-686-129l187 0 0-188-187 0 0 188 0 0z m62-125l63 0 0 62-63 0 0-62 0 0z" horiz-adv-x="1000" />

<glyph glyph-name="car" unicode="&#xe807;" d="M938-25l0-63c0-34-28-62-63-62l-62 0c-35 0-63 28-63 62l0 63-500 0 0-63c0-34-28-62-62-62l-63 0c-34 0-62 28-62 62l0 63-63 0 0 125 0 188c0 50 30 93 73 113l52 262c0 103 84 187 188 187l375 0c103 0 187-84 187-187l50-250 2-12c43-20 73-63 73-113l0-188 0-125-62 0 0 0z m-125-31c0-18 14-32 31-32 17 0 31 14 31 32l0 31-62 0 0-31 0 0z m-688 0c0-18 14-32 31-32 18 0 32 14 32 32l0 31-63 0 0-31 0 0z m688 719c0 69-56 125-125 125l-375 0c-69 0-125-56-125-125l-50-250 725 0-50 250 0 0z m125-563l0 0 0 0 0 188c0 34-28 62-63 62l-750 0c-34 0-62-28-62-62l0-188 0 0 0 0 0-63 875 0 0 63 0 0z m-157 0c-51 0-93 42-93 94 0 52 42 94 93 94 52 0 94-42 94-94 0-52-42-94-94-94l0 0z m0 125c-17 0-31-14-31-31 0-17 14-31 31-31 18 0 32 14 32 31 0 17-14 31-32 31l0 0z m-562-125c-52 0-94 42-94 94 0 52 42 94 94 94 52 0 94-42 94-94 0-52-42-94-94-94l0 0z m0 125c-17 0-31-14-31-31 0-17 14-31 31-31 17 0 31 14 31 31 0 17-14 31-31 31l0 0z" horiz-adv-x="1000" />

<glyph glyph-name="rows" unicode="&#xe808;" d="M125 788l750 0c34 0 63-28 63-64l0-123c0-35-29-63-63-63l-750 0c-34 0-62 27-62 63l0 123c0 35 28 64 62 64l0 0z m0-187c0-1 0-1 0-1l750 0c0 0 0 0 0 1l0 123c0 1 0 1 0 1l-750 0c0 0 0 0 0-1l0-123z m0-126l750 0c34 0 63-28 63-63l0-124c0-35-29-63-63-63l-750 0c-34 0-62 28-62 63l0 124c0 35 28 63 62 63z m0-187c0 0 0 0 0 0l750 0c0 0 0 0 0 0l0 124c0 1 0 1 0 1l-750 0c0 0 0-1 0-1l0-124z m0-125l750 0c34 0 63-28 63-64l0-123c0-35-29-64-63-64l-750 0c-34 0-62 28-62 64l0 123c0 35 28 64 62 64z m0-187c0-1 0-1 0-1l750 0c0 0 0 0 0 1l0 123c0 1 0 1 0 1l-750 0c0 0 0 0 0-1l0-123z" horiz-adv-x="1000" />

<glyph glyph-name="grid" unicode="&#xe809;" d="M875-88l-250 0c-35 0-62 28-62 63l0 250c0 35 27 63 62 63l250 0c35 0 63-28 63-63l0-250c0-35-28-63-63-63l0 0z m0 282c0 17-14 31-31 31l-188 0c-17 0-31-14-31-31l0-188c0-17 14-31 31-31l188 0c17 0 31 14 31 31l0 188 0 0z m0 219l-250 0c-35 0-62 27-62 62l0 250c0 35 27 63 62 63l250 0c35 0 63-28 63-63l0-250c0-35-28-62-63-62l0 0z m0 281c0 17-14 31-31 31l-188 0c-17 0-31-14-31-31l0-188c0-17 14-31 31-31l188 0c17 0 31 14 31 31l0 188 0 0z m-500-782l-250 0c-35 0-62 28-62 63l0 250c0 35 27 63 62 63l250 0c35 0 63-28 63-63l0-250c0-35-28-63-63-63l0 0z m0 282c0 17-14 31-31 31l-188 0c-17 0-31-14-31-31l0-188c0-17 14-31 31-31l188 0c17 0 31 14 31 31l0 188 0 0z m0 219l-250 0c-35 0-62 27-62 62l0 250c0 35 27 63 62 63l250 0c35 0 63-28 63-63l0-250c0-35-28-62-63-62l0 0z m0 281c0 17-14 31-31 31l-188 0c-17 0-31-14-31-31l0-188c0-17 14-31 31-31l188 0c17 0 31 14 31 31l0 188 0 0z" horiz-adv-x="1000" />

<glyph glyph-name="chevron-down" unicode="&#xe80a;" d="M866 591c-12 12-30 12-42 0l-324-353-324 353c-12 12-30 12-42 0-12-11-12-30 0-42l342-372c1-2 0-4 2-5 6-6 14-9 22-9 8 0 16 2 22 9 1 1 1 3 2 5l342 372c12 12 12 31 0 42l0 0z" horiz-adv-x="1000" />

<glyph glyph-name="chevron-left" unicode="&#xe80b;" d="M680 674l-355-325 355-324c12-12 12-31 0-43-12-11-31-11-42 0l-374 343c-2 1-4 1-5 2-7 6-9 14-9 22 0 8 2 17 9 23 1 1 3 1 5 2l374 342c11 12 30 12 42 0 12-11 12-30 0-42l0 0z" horiz-adv-x="1000" />

<glyph glyph-name="chevron-right" unicode="&#xe80c;" d="M259 674l355-325-355-324c-12-12-12-31 0-43 12-11 31-11 42 0l374 343c2 1 4 1 5 2 6 6 9 14 9 22 0 8-2 17-9 23-1 1-3 1-5 2l-374 342c-12 12-30 12-42 0-12-11-12-30 0-42l0 0z" horiz-adv-x="1000" />

<glyph glyph-name="chevron-up" unicode="&#xe80d;" d="M866 172c-12-12-30-12-42 0l-324 353-324-353c-12-12-30-12-42 0-12 12-12 30 0 42l342 373c1 1 0 3 2 5 6 6 14 8 22 8 8 0 16-2 22-8 1-2 1-4 2-5l342-373c12-12 12-30 0-42l0 0z" horiz-adv-x="1000" />

<glyph glyph-name="star" unicode="&#xe80e;" d="M929 489q0-12-15-27l-202-197 48-279q0-4 0-12 0-11-6-19t-17-9q-10 0-22 7l-251 132-250-132q-12-7-23-7-11 0-17 9t-6 19q0 4 1 12l48 279-203 197q-14 15-14 27 0 21 31 26l280 40 126 254q11 23 27 23t28-23l125-254 280-40q32-5 32-26z" horiz-adv-x="928.6" />

<glyph glyph-name="star-empty" unicode="&#xe80f;" d="M635 290l170 166-235 34-106 213-105-213-236-34 171-166-41-235 211 111 211-111z m294 199q0-12-15-27l-202-197 48-279q0-4 0-12 0-28-23-28-10 0-22 7l-251 132-250-132q-12-7-23-7-11 0-17 9t-6 19q0 4 1 12l48 279-203 197q-14 15-14 27 0 21 31 26l280 40 126 254q11 23 27 23t28-23l125-254 280-40q32-5 32-26z" horiz-adv-x="928.6" />

<glyph glyph-name="delete" unicode="&#xe810;" d="M875 538l0-626c0-34-28-62-62-62l-563 0c-35 0-62 28-62 62l0 626c-35 0-63 28-63 62l0 63c0 34 28 62 63 62l187 0 0 94c0 17 14 31 31 31l250 0c17 0 32-14 32-31l0-94 187 0c35 0 63-28 63-62l0-63c0-34-28-62-63-62l0 0z m-625-32l0-31 0-531c0-18 14-32 31-32l500 0c17 0 32 14 32 32l0 531 0 31 0 32-32 0-500 0-31 0 0-32 0 0z m375 282l-187 0 0-63 187 0 0 63 0 0z m219-125l-188 0-250 0-187 0c-17 0-31-14-31-32 0-17 14-31 31-31l31 0 563 0 31 0c17 0 31 14 31 31 0 18-14 32-31 32l0 0z m-406-688l-63 0 0 438 63 0 0-438 0 0z m125 0l-63 0 0 438 63 0 0-438 0 0z m125 0l-63 0 0 438 63 0 0-438 0 0z" horiz-adv-x="1000" />

<glyph glyph-name="mail" unicode="&#xe811;" d="M929 11v428q-18-20-39-36-149-115-238-189-28-24-46-37t-48-28-57-13h-2q-26 0-57 13t-48 28-46 37q-88 74-238 189-21 16-39 36v-428q0-7 6-13t12-5h822q7 0 12 5t6 13z m0 586v14t-1 7-1 7-3 5-5 4-8 2h-822q-7 0-12-6t-6-12q0-94 83-159 107-84 223-176 4-3 20-17t25-21 25-17 28-16 24-5h2q11 0 24 5t28 16 25 17 25 21 20 17q116 92 224 176 30 24 56 65t26 73z m71 21v-607q0-37-26-63t-63-27h-822q-36 0-63 27t-26 63v607q0 37 26 63t63 26h822q37 0 63-26t26-63z" horiz-adv-x="1000" />

<glyph glyph-name="plus" unicode="&#xe812;" d="M500 285l-341 0-34 0 0 63 34 0 341 0 0 343 0 34 63 0 0-34 0-343 341 0 34 0 0-63-34 0-341 0 0-344 0-33-63 0 0 33 0 344z" horiz-adv-x="1000" />

<glyph glyph-name="minus" unicode="&#xe813;" d="M159 285h779v63h-813v-63" horiz-adv-x="1000" />

<glyph glyph-name="search" unicode="&#xe814;" d="M991-141c-12-12-30-12-42 0l-279 279c-71-62-162-100-264-100-224 0-406 181-406 406 0 224 182 406 406 406 225 0 407-182 407-406 0-102-39-193-100-264l278-279c12-12 12-30 0-42l0 0z m-241 585c0 190-154 344-344 344-189 0-343-154-343-344 0-190 154-344 343-344 190 0 344 154 344 344l0 0z" horiz-adv-x="1000" />

<glyph glyph-name="shipping" unicode="&#xe815;" d="M969 163l-97 0c2-10 3-21 3-32 0-86-70-156-156-156-87 0-156 70-156 156 0 11 1 22 3 32l-194 0c2-10 3-21 3-32 0-86-70-156-156-156-86 0-156 70-156 156 0 11 1 22 3 32l-3 0c-35 0-63 28-63 63l0 437c0 34 28 62 63 62l562 0c35 0 63-28 63-62l0-63 218 0c17 0 32-14 32-31l62-374c0-18-14-32-31-32l0 0z m-250-125c52 0 94 42 94 93 0 52-42 93-94 93-52 0-94-41-94-93 0-51 42-93 94-93l0 0z m-500 0c52 0 94 42 94 93 0 52-42 93-94 93-52 0-94-41-94-93 0-51 42-93 94-93l0 0z m406 593c0 17-14 31-31 31l-500 0c-17 0-31-14-31-31l0-375c0-17 14-31 31-31l0 0c29 38 74 62 125 62 51 0 96-24 124-62l251 0c0 0 0 0 0 0 9 11 19 22 31 30 0 1 0 1 0 1l0 95 0 61 0 219 0 0z m63-93l0-126 212 0-25 126-187 0 0 0z m224-187l-224 0 0-67c10 2 20 3 31 3 51 0 95-24 124-62l95 0-26 126 0 0z" horiz-adv-x="1000" />

<glyph glyph-name="cancel" unicode="&#xe816;" d="M804 90c12-12 12-32 0-44-12-12-31-12-43 0l-261 260-260-260c-12-12-32-12-43 0-12 12-12 32 0 44l260 260-260 260c-12 12-12 32 0 44 11 12 31 12 43 0l260-261 261 261c12 12 31 12 43 0 12-12 12-32 0-44l-260-260 260-260 0 0z" horiz-adv-x="1000" />

<glyph glyph-name="filter" unicode="&#xe817;" d="M875-22l0-66-62 0 0 66c-72 15-125 78-125 153 0 76 53 139 125 153l0 504 62 0 0-504c71-14 125-77 125-153 0-75-54-138-125-153l0 0 0 0z m-31 247c-52 0-94-42-94-94 0-51 42-93 94-93 52 0 94 42 94 93 0 52-42 94-94 94l0 0 0 0z m-281 191l0-504-63 0 0 504c-71 14-125 77-125 153 0 75 54 138 125 153l0 66 63 0 0-66c71-15 125-78 125-153 0-76-54-139-125-153l0 0 0 0z m-32 247c-51 0-93-42-93-94 0-52 42-94 93-94 52 0 94 42 94 94 0 52-42 94-94 94l0 0 0 0z m-281-560l0-191-62 0 0 191c-72 15-125 78-125 153 0 76 53 139 125 153l0 379 62 0 0-379c71-14 125-77 125-153 0-75-54-138-125-153l0 0 0 0z m-31 247c-52 0-94-42-94-94 0-51 42-93 94-93 52 0 94 41 94 93 0 52-42 94-94 94l0 0 0 0z" horiz-adv-x="1000" />

<glyph glyph-name="sort" unicode="&#xe818;" d="M429-74c-1-2-1-2-2-3 0 0-1 0-1 0-5-5-12-8-19-8-1 0-1-1-1-1-2 0-2 1-3 1-6 0-11 3-16 6-1 1-3 1-4 2-1 1-1 3-1 4-1 0-1 0-2 1l-309 340c-11 12-11 31 0 43 12 12 32 12 43 0l260-286 0 731c0 18 14 32 31 32 18 0 31-14 31-32l0-731-7-99 0 0z m141 850c1 2 1 2 2 3 0 0 1 0 1 0 5 5 12 8 19 8 1 0 1 0 1 0 2 0 2 0 3 0 6-1 11-3 16-7 1-1 3 0 4-1 1-1 1-3 1-4 1 0 1-1 2-1l309-340c11-12 11-31 0-43-12-12-32-12-43 0l-260 286 0-731c0-18-14-32-31-32-18 0-31 14-31 32l0 731 7 99 0 0z" horiz-adv-x="1000" />

<glyph glyph-name="lamp" unicode="&#xe819;" d="M625 287l0-187-62 0 0 187-63 0 0-375 187 0 0-62-187 0-62 0-125 0 0 62 125 0 0 375-438 0 0 63c0 276 224 500 500 500 276 0 500-224 500-500l0-63-375 0 0 0z m313 63c0 21-4 42-7 62l-862 0c-3-20-7-41-7-62l876 0 0 0z m-438 437c-198 0-363-132-417-312l834 0c-54 180-219 312-417 312l0 0z" horiz-adv-x="1000" />

<glyph glyph-name="game" unicode="&#xe81a;" d="M719 38l-438 0c-155 0-281 125-281 281 0 155 126 281 281 281l438 0c155 0 281-126 281-281 0-155-126-281-281-281l0 0z m0 500l-438 0c-121 0-218-98-218-219 0-121 97-219 218-219l438 0c121 0 219 98 219 219 0 121-98 219-219 219l0 0z m-51-375l-43 43 207 144 43-43-207-144 0 0z m-106 168l207 144 44-43-207-144-44 43 0 0z m-249-168l-63 0 0 125-125 0 0 62 125 0 0 125 63 0 0-125 125 0 0-62-125 0 0-125 0 0z" horiz-adv-x="1000" />

<glyph glyph-name="camera" unicode="&#xe81b;" d="M875-150l-750 0c-69 0-125 56-125 125l0 563c0 69 56 125 125 125l125 0c0 69 56 125 125 125l250 0c69 0 125-56 125-125l125 0c69 0 125-56 125-125l0-563c0-69-56-125-125-125l0 0z m-250 875l-250 0c-35 0-62-28-62-62l375 0c0 34-28 62-63 62l0 0z m313-187c0 34-28 62-63 62l-750 0c-35 0-62-28-62-62l125 0 0-63-125 0 0-62 125 0 0-63-125 0 0-375c0-35 27-63 62-63l750 0c35 0 63 28 63 63l0 563 0 0z m-438-563c-138 0-250 112-250 250 0 138 112 250 250 250 138 0 250-112 250-250 0-138-112-250-250-250l0 0z m0 438c-104 0-187-84-187-188 0-104 83-187 187-187 104 0 188 83 188 187 0 104-84 188-188 188l0 0z" horiz-adv-x="1000" />

<glyph glyph-name="laptop" unicode="&#xe81c;" d="M969-88l-938 0c-17 0-31 14-31 32l0 125c0 17 14 31 31 31l938 0c17 0 31-14 31-31l0-125c0-18-14-32-31-32l0 0z m-31 126l-875 0 0-63 875 0 0 63 0 0z m-688 62l0 125 0 313 500 0 0-313 0-125-62 0 0 125 0 250-375 0 0-250 0-125-63 0z m563 469c0 17-14 31-32 31l-562 0c-17 0-31-14-31-31l0-344 0-125-63 0 0 125 0 375c0 35 28 63 63 63l625 0c34 0 62-28 62-63l0-375 0-125-62 0 0 125 0 344z" horiz-adv-x="1000" />

<glyph glyph-name="tv" unicode="&#xe81d;" d="M563 100l0-125 93 0c18 0 32-14 32-31 0-17-14-32-32-32l-250 0c-17 0-31 14-31 32 0 17 14 31 31 31l94 0 0 125-375 0c-35 0-62 28-62 63l0 500c0 34 27 62 62 62l813 0c34 0 62-28 62-62l0-500c0-35-28-63-62-63l-375 0z m375 538c0 13-14 25-32 25l-750 0c-17 0-31-12-31-25l0-450c0-14 14-25 31-25l344 0 63 0 343 0c18 0 32 11 32 25l0 450 0 0z" horiz-adv-x="1000" />

<glyph glyph-name="fridge" unicode="&#xe81e;" d="M813-150l-563 0c-35 0-62 28-62 62l0 438 0 63 0 375c0 34 27 62 62 62l563 0c34 0 62-28 62-62l0-375 0-63 0-438c0-34-28-62-62-62l0 0z m0 906c0 18-14 32-32 32l-500 0c-17 0-31-14-31-32l0-343 563 0 0 343 0 0z m0-406l-563 0 0-406c0-18 14-32 31-32l500 0c18 0 32 14 32 32l0 406 0 0z m-500-62l62 0 0-125-62 0 0 125 0 0z m62 187l-62 0 0 125 62 0 0-125 0 0z" horiz-adv-x="1000" />

<glyph glyph-name="sofa" unicode="&#xe81f;" d="M931 252c4-8 7-17 7-27l0-125 0-62 0-63c0-35-28-63-63-63l-31 0 0-62-63 0 0 62-218 0-125 0-219 0 0-62-63 0 0 62-31 0c-35 0-62 28-62 63l0 63 0 62 0 125c0 10 2 19 6 27-42 28-69 75-69 129 0 76 54 139 125 153l0 4c0 172 140 312 313 312l125 0c172 0 312-140 312-312l0-4c71-14 125-77 125-153 0-54-27-101-69-129l0 0z m-806-246c0-17 14-31 31-31l63 0 562 0 63 0c17 0 31 14 31 31l0 32-750 0 0-32 0 0z m0 94l750 0 0 94c0 17-14 31-31 31-32 0-61 9-85 25-66 18-162 38-259 38-97 0-193-20-259-38-24-16-53-25-85-25-17 0-31-14-31-31l0-94 0 0z m-62 281c0-51 42-93 93-93 52 0 94 42 94 93 0 52-42 94-94 94-51 0-93-42-93-94l0 0z m750 157c0 138-112 250-250 250l-125 0c-139 0-250-112-250-250l0-4c71-14 125-77 125-153 0-18-4-35-10-50 60 10 128 19 197 19 69 0 137-9 197-19-6 16-9 32-9 50 0 76 53 139 125 153l0 4 0 0z m31-63c-52 0-94-42-94-94 0-51 42-93 94-93 52 0 94 42 94 93 0 52-42 94-94 94l0 0z m-235-62l-93 93-94-93-47 47 94 93-94 94 47 47 94-94 93 94 47-47-94-94 94-93-47-47 0 0z" horiz-adv-x="1000" />

<glyph glyph-name="account" unicode="&#xe820;" d="M500-150c-276 0-500 224-500 500 0 276 224 500 500 500 276 0 500-224 500-500 0-276-224-500-500-500l0 0z m0 62c96 0 185 33 257 85-13 22-36 56-71 92-26 26-57 52-85 73-31-19-64-31-101-31-36 0-70 12-101 31-28-21-59-47-85-73-35-36-58-70-71-92 72-52 161-85 257-85l0 0z m156 485c0 112-70 203-156 203-86 0-156-91-156-203 0-112 70-203 156-203 86 0 156 91 156 203l0 0z m-156 391c-242 0-437-196-437-438 0-124 51-235 134-314 11 20 34 56 71 93 25 26 56 52 84 73-43 49-71 118-71 195 0 147 98 265 219 265 121 0 219-118 219-265 0-77-28-146-71-195 28-21 59-47 84-73 37-37 60-73 72-93 82 79 134 191 134 314 0 242-196 438-438 438l0 0z" horiz-adv-x="1000" />

<glyph glyph-name="bestprice" unicode="&#xe821;" d="M528-151c-236 0-403 164-403 390 0 119 72 248 75 254 6 11 18 17 31 16 13-2 23-11 26-24 0 0 20-73 45-113 17-27 35-46 54-59-13 57-23 143-7 232 46 243 237 301 245 304 10 3 21 0 30-7 8-7 11-18 9-29 0-2-32-172 35-317 6-13 15-29 24-44 3 21 7 43 13 65 24 86 88 116 90 117 11 4 23 3 33-4 9-7 13-19 11-31 0-2-9-60 41-143 45-75 57-124 57-217 0-226-172-390-409-390l0 0z m-306 544c-17-43-34-101-34-154 0-189 140-327 340-327 201 0 347 137 347 327 0 82-10 119-49 184-26 44-39 83-45 114-6-10-12-22-16-37-19-67-14-145-14-146 1-14-8-27-21-31-13-5-28 0-36 11-2 3-58 82-83 135-50 111-50 230-44 298-52-30-131-97-156-233-25-133 23-266 24-267 4-11 1-24-6-32-8-9-20-13-31-10-4 1-92 24-149 114-10 16-19 35-27 54l0 0z" horiz-adv-x="1000" />

<glyph glyph-name="brand" unicode="&#xe822;" d="M1000 350l-62 0 0 0 0-250 0-62 0-188-813 0 0 188 0 62 0 250-62 0 125 375 62 0 0 125 563 0 0-125 62 0 104-312 21 0 0-63 0 0 0 0z m-812-437l687 0 0 125-687 0 0-125 0 0z m0 187l687 0 0 250-312 0 0 0-63 0 0 0-312 0 0-250 0 0z m375 313l158 0-82 250-76 0 0-250 0 0z m-63 250l-77 0-81-250 158 0 0 250 0 0z m-250 0l-21 0-83-250 118 0 82 250-96 0 0 0 0 0z m500 125l-437 0 0-63 187 0 63 0 187 0 0 63 0 0z m83-125l-20 0 0 0-96 0 81-250 119 0-84 250 0 0z" horiz-adv-x="1000" />

<glyph glyph-name="offertag" unicode="&#xe823;" d="M1001 370l-502-502c-24-24-64-24-88 0l-393 393c-24 24-24 63 0 87l503 502 480 0 0-480 0 0z m-459 415l-458-459c-12-12-12-31 0-43l349-349c12-12 32-12 44 0l458 458 4 396-397-3 0 0z m120-274c-49 49-49 129 0 178 49 49 128 49 177 0 49-49 49-129 0-178-49-49-128-49-177 0l0 0z m134 134c-25 25-64 25-89 0-24-24-24-64 0-88 25-25 64-25 89 0 24 24 24 64 0 88l0 0z m-603-384l44 44 218-219-44-43-218 218 0 0z" horiz-adv-x="1000" />

<glyph glyph-name="settings" unicode="&#xe824;" d="M1000 350c0-66-51-119-115-124-7-21-15-42-26-62 42-49 41-121-5-168-47-46-119-47-168-5-20-11-41-19-62-26-5-64-58-115-124-115-66 0-119 51-124 115-21 7-42 15-62 26-49-42-121-41-168 5-46 47-47 119-5 168-11 20-19 41-26 62-64 5-115 58-115 124 0 66 51 119 115 124 7 21 15 42 26 62-42 49-41 121 5 168 47 46 119 47 168 5 20 11 41 19 62 26 5 64 58 115 124 115 66 0 119-51 124-115 21-7 42-15 62-26 49 42 121 41 168-5 46-47 47-119 5-168 11-20 19-41 26-62 64-5 115-58 115-124l0 0z m-162 62c-9 49-29 93-55 132l26 27c25 24 25 64 0 88-24 25-64 25-88 0l-27-27c-39 27-83 47-132 55l0 38c0 34-28 62-62 62-35 0-63-28-63-62l0-38c-48-8-92-28-131-55l-27 27c-24 25-64 25-88 0-25-24-25-64 0-88l26-27c-27-39-46-83-55-132l-37 0c-35 0-62-28-62-62 0-35 27-63 62-63l37 0c9-48 29-92 55-131l-26-27c-25-24-25-64 0-88 24-25 64-25 88 0l27 27c39-27 83-47 132-56l0-37c0-35 27-63 62-63 35 0 63 28 63 63l0 37c48 9 92 29 131 56l27-27c24-25 64-25 88 0 25 24 25 64 0 88l-26 27c26 39 46 83 55 131l37 0c35 0 63 28 63 63 0 35-28 62-63 62l-37 0 0 0z m-338-250c-104 0-187 84-187 188 0 103 83 187 187 187 104 0 188-83 188-187 0-104-84-188-188-188l0 0z m0 313c-69 0-125-56-125-125 0-69 56-125 125-125 69 0 125 56 125 125 0 69-56 125-125 125l0 0z" horiz-adv-x="1000" />

<glyph glyph-name="woofer" unicode="&#xe825;" d="M938-150l-875 0c-35 0-63 28-63 62l0 876c0 34 28 62 63 62l875 0c34 0 62-28 62-62l0-876c0-34-28-62-62-62l0 0z m0 906c0 18-15 32-32 32l-812 0c-17 0-31-14-31-32l0-812c0-18 14-32 31-32l812 0c17 0 32 14 32 32l0 812 0 0z m-125-718l62 0 0-63-62 0 0 63 0 0z m-313-63c-207 0-375 168-375 375 0 207 168 375 375 375 207 0 375-168 375-375 0-207-168-375-375-375l0 0z m0 688c-173 0-312-140-312-313 0-173 139-312 312-312 173 0 313 139 313 312 0 173-140 313-313 313l0 0z m0-500c-104 0-187 83-187 187 0 104 83 188 187 188 104 0 188-84 188-188 0-104-84-187-188-187l0 0z m0 312c-69 0-125-56-125-125 0-69 56-125 125-125 69 0 125 56 125 125 0 69-56 125-125 125l0 0z m313 250l62 0 0-62-62 0 0 62 0 0z m-688 0l63 0 0-62-63 0 0 62 0 0z m63-750l-63 0 0 63 63 0 0-63 0 0z" horiz-adv-x="1000" />

<glyph glyph-name="headphones" unicode="&#xe826;" d="M1000 256l0-187c0-52-42-94-94-94l-125 0c-51 0-93 42-93 94l0 281 0 0 0 94 93 0 0 0 91 0c-16 192-176 344-372 344-196 0-356-152-372-344l91 0 0 0 94 0 0-188 0 0 0-187c0-52-42-94-94-94l-125 0c-52 0-94 42-94 94l0 187 0 94 0 94 66 0c16 227 203 406 434 406 231 0 418-179 434-406l66 0 0-188 0 0 0 0z m-937 125l0-125 0 0 0-187c0-18 14-32 31-32l125 0c17 0 31 14 31 32l0 187 0 0 0 125-187 0 0 0z m875 0l-188 0 0-125 0 0 0-187c0-18 14-32 31-32l125 0c17 0 32 14 32 32l0 187 0 0 0 125 0 0z m-63-531l-62 0 0 125 62 0 0-125 0 0z" horiz-adv-x="1000" />

<glyph glyph-name="alert" unicode="&#xe827;" d="M750 346l-234 406a18 18 0 0 1-32 0l-234-406-234-407a18 18 0 0 1 15-27h938a18 18 0 0 1 15 27z m-611-371a18 18 0 0 0-15 27l180 312 180 313a18 18 0 0 0 32 0l180-313 180-312a18 18 0 0 0-15-27h-722z m330 236v215a18 18 0 0 0 17 18h28a18 18 0 0 0 17-18v-215a18 18 0 0 0-17-17h-28a18 18 0 0 0-17 17z m18-142h27a18 18 0 0 1 18 18v27a18 18 0 0 1-18 18h-27a18 18 0 0 1-18-18v-27a18 18 0 0 1 18-18z" horiz-adv-x="1000" />

<glyph glyph-name="coupon" unicode="&#xe828;" d="M869-150l-123 125-120-125-129 125-124-125-129 125-116-125-65 0 0 1000 875 0 0-1000-69 0 0 0z m6 938l-750 0 0-849 73 78 43 47 46-44 85-82 81 81 43 44 45-43 84-81 76 79 45 47 45-46 84-86 0 855 0 0z m-625-500l500 0 0-63-500 0 0 63 0 0z m0 125l500 0 0-63-500 0 0 63 0 0z m0 250l500 0 0-63-500 0 0 63 0 0z" horiz-adv-x="1000" />

<glyph glyph-name="gift" unicode="&#xe829;" d="M938 475l-63 0 0-250 0-62 0-313-375 0-62 0-375 0 0 313 0 62 0 250-63 0 0 188 267 0c-10 18-17 39-17 62 0 69 56 125 125 125 38 0 71-17 94-43 23 26 56 43 94 43 69 0 125-56 125-125 0-23-7-44-18-62l268 0 0-188 0 0z m-438-563l313 0 0 251-313 0 0-251 0 0z m0 313l313 0 0 250-313 0 0-250 0 0z m-375-313l313 0 0 251-313 0 0-251 0 0z m0 313l313 0 0 250-313 0 0-250 0 0z m250 563c-35 0-62-28-62-63 0-35 27-63 62-63 35 0 63 28 63 63 0 35-28 63-63 63l0 0z m188 0c-35 0-63-28-63-63 0-35 28-63 63-63 34 0 62 28 62 63 0 35-28 63-62 63l0 0z m312-188l-812 0 0-62 812 0 0 62 0 0z" horiz-adv-x="1000" />

<glyph glyph-name="block" unicode="&#xe82a;" d="M732 352q0 90-48 164l-421-420q76-50 166-50 62 0 118 25t96 65 65 97 24 119z m-557-167l421 421q-75 50-167 50-83 0-153-40t-110-111-41-153q0-91 50-167z m682 167q0-88-34-168t-91-137-137-92-166-34-167 34-137 92-91 137-34 168 34 167 91 137 137 91 167 34 166-34 137-91 91-137 34-167z" horiz-adv-x="857.1" />

<glyph glyph-name="warranty" unicode="&#xe82b;" d="M500-150c-469 219-500 938-500 938 85-52 161-70 227-70 174 0 273 132 273 132 0 0 99-132 273-132 66 0 142 18 227 70 0 0-31-719-500-938l0 0z m0 70c217 115 327 356 383 555l-765 0c55-199 165-440 382-555l0 0z m273 735c-127 0-220 60-273 106-53-46-146-106-273-106-51 0-102 10-153 28 6-41 15-91 28-145l797 0c13 54 21 104 27 145-51-18-102-28-153-28l0 0z" horiz-adv-x="1000" />

<glyph glyph-name="zoom" unicode="&#xe82c;" d="M991-141c-12-12-30-12-42 0l-279 279c-71-62-162-100-264-100-224 0-406 181-406 406 0 224 182 406 406 406 225 0 407-182 407-406 0-102-39-193-100-264l278-279c12-12 12-30 0-42l0 0z m-241 585c0 190-154 344-344 344-189 0-343-154-343-344 0-190 154-344 343-344 190 0 344 154 344 344l0 0z m-156-31l-156 0 0-157c0-17-14-31-32-31-17 0-31 14-31 31l0 157-156 0c-17 0-31 14-31 31 0 17 14 31 31 31l156 0 0 156c0 18 14 32 31 32 18 0 32-14 32-32l0-156 156 0c17 0 31-14 31-31 0-17-14-31-31-31l0 0z" horiz-adv-x="1000" />

<glyph glyph-name="creditcard" unicode="&#xe82d;" d="M875-88l-750 0c-69 0-125 56-125 126l0 312 0 250 0 63c0 69 56 125 125 125l750 0c69 0 125-56 125-125l0-63 0-250 0-312c0-70-56-126-125-126l0 0z m63 751c0 34-28 62-63 62l-750 0c-35 0-62-28-62-62l0-63 875 0 0 63 0 0z m0-125l-875 0 0-125 875 0 0 125 0 0z m0-188l-875 0 0-312c0-35 27-63 62-63l750 0c35 0 63 28 63 63l0 312 0 0z m-500-187l187 0 0-63-187 0 0 63 0 0z m-313 0l250 0 0-63-250 0 0 63 0 0z" horiz-adv-x="1000" />

<glyph glyph-name="cash" unicode="&#xe82e;" d="M938-25l-688 0c-35 0-62 28-62 63l0 62 62 0 0-31c0-18 14-31 31-31l625 0c17 0 32 14 32 31l0 375c0 17-15 31-32 31l-31 0 0 63 63 0c34 0 62-28 62-63l0-437c0-35-28-63-62-63l0 0z m-188 188l-687 0c-35 0-63 28-63 62l0 438c0 34 28 62 63 62l687 0c35 0 63-28 63-62l0-438c0-34-28-62-63-62l0 0z m0 468c0 18-14 32-31 32l-625 0c-17 0-31-14-31-32l0-375c0-17 14-31 31-31l625 0c17 0 31 14 31 31l0 375 0 0z m-344-343c-86 0-156 70-156 156 0 86 70 156 156 156 87 0 157-70 157-156 0-86-70-156-157-156l0 0z m0 250c-51 0-93-42-93-94 0-52 42-94 93-94 52 0 94 42 94 94 0 52-42 94-94 94l0 0z" horiz-adv-x="1000" />

<glyph glyph-name="skin-care" unicode="&#xe82f;" d="M384 386l40 0 0 88c-3 38 28 69 64 72l24 0 0 64c0 13 10 23 24 24l48 0 0 64-120 0 0-8c3-13-7-23-16-24-16 1-27 11-24 24l0 16c-3 22 15 40 40 40l240 0c13 0 23-10 24-24-1-11-11-21-24-24l-80 0 0-64 48 0c11-1 21-11 24-24l0-64 24 0c34-3 64-34 64-72l0-432c0-34-30-64-64-64l-544 0c-41 0-72 30-72 64l0 272c0 40 30 71 72 72l56 0 0 64c-3 15 7 25 16 24l120 0c9 1 19-9 16-24l0-64z m-232-72l0-272c0-14 10-24 24-24l272 0c14 0 24 10 24 24l0 272c0 14-10 24-24 24l-272 0c-14 0-24-10-24-24z m120 80l72 0 0 40-72 0 0-40z m384 152l0 56-104 0 0-56 104 0z m56-520c14 0 24 10 24 24l0 424c0 14-10 24-24 24l-224 0c-14 0-24-10-24-24l0-96c26-5 45-30 48-56l0-272c-3-9-4-17-8-24l208 0z" horiz-adv-x="1000" />

<glyph glyph-name="snacks-bakery" unicode="&#xe830;" d="M878 475c-5 18-24 53-59 66-49 116-126 148-156 160-34 13-62-1-72-12-8-9-18-30-7-59 21-42 27-91 29-109-12-14-18-32-18-54 0-44-9-53-9-53 0 0-1-1-3-1-11-3-21-7-30-13-36-28-36-29-56-46l-5-4c-10-9-22-19-31-33-6-3-23-9-48-7-27 3-62 3-87-21-14 0-53 0-99 19-49 25-76 6-85-3-12-12-27-31-20-62 8-42 60-164 184-190 16-25 39-35 70-45 17-5 43-8 72-8 41 0 87 6 123 19 12-7 27-11 42-11 8 0 15 1 23 3 161 55 225 179 231 192 11 19 22 58 2 90 32 101 15 160 10 180l-1 2z m-34-12c4-16 17-62-5-141-69 48-165 81-169 83-1 0-20 8-45 10 4 13 6 30 6 53 0 14 4 25 11 32 12 12 30 12 31 12 26 1 99 4 129-4 25-6 38-33 41-42l1-3z m-195 204c27-10 84-34 127-119-45 3-101 0-103 0-2 0-13 0-26-4-4 25-12 65-29 101-5 13-1 19 1 20 0 1 10 11 30 2z m-482-387c8 7 24 6 45-4 36-16 68-21 91-22-16-41-24-108-13-159-105 37-133 154-133 155-3 12 0 19 10 30z m160-183c-12 43-4 111 11 147 11 26 30 35 71 30 15-1 28 0 39 2 0-5 0-10 1-15 15-147 80-210 81-211 1-2 3-3 4-4-52-12-118-12-148-3-36 12-50 19-59 54z m507 123c0-2-59-123-210-174-3-1-7-2-11-2-29 0-55 29-56 31-1 0-58 57-72 191-4 24 10 38 31 56l5 5c19 16 19 16 55 44 8 6 19 9 33 9 24 0 48-9 49-10 1 0 106-36 170-85 29-23 9-59 7-63l-1-2z" horiz-adv-x="1000" />

<glyph glyph-name="spices" unicode="&#xe831;" d="M875 8c-3 0-265 68-347 440-2 7-50 175-182 175-16 0-34-3-52-8-12 30-62 121-160 115-8-2-14-8-14-18 0-8 8-14 18-14 73 5 115-69 128-94-2-2-4-2-5-2-10-3-71-27-90-91-19-64 11-146 91-240 10-13 256-309 516-309 33 0 67 5 99 16 6 2 11 8 11 16 0 6-5 13-13 14l0 0z m-672 493c15 51 69 71 69 71 0 0 2 0 2 1 25 13 49 18 72 18 25 0 48-10 67-23l-24-72-77 26c-8 3-18-2-21-10l-25-76-66 22c-2 14-2 30 3 43l0 0z m575-507c-245 0-488 294-492 298-40 48-65 91-78 129l62-21c2 0 4-1 5-1 7 0 13 5 15 11l25 77 77-26c8-3 18 2 21 10l24 73c40-44 57-104 57-105 64-293 232-405 319-443-10 0-23-2-35-2l0 0z" horiz-adv-x="1000" />

<glyph glyph-name="audio-video" unicode="&#xe832;" d="M1000 787l0 0 0-1 0-561-1 0c4-73-46-157-135-209-111-65-239-52-285 28-46 81 7 199 119 264 85 50 179 54 239 18l0 387-500-106 0-507-1 0c5-73-46-157-134-209-112-65-239-52-285 28-46 81 7 199 118 264 85 50 179 54 240 18l0 461 625 125 0 1 0-1 0 0z m-71-538c-28 50-117 51-199 4-82-48-125-128-97-177 29-50 118-52 199-4 82 48 125 127 97 177l0 0z m-563-125c-28 50-117 51-199 4-81-48-124-128-96-177 28-50 117-52 199-4 81 48 125 127 96 177l0 0z" horiz-adv-x="1000" />

<glyph glyph-name="download" unicode="&#xe833;" d="M665 403l-134-134v430a31 31 0 1 1-62 0v-430l-134 134a31 31 0 0 1-44-44l187-187a31 31 0 0 1 44 0l188 187a31 31 0 0 1-44 44z m85-303h-500a31 31 0 0 1 0-62h500a31 31 0 0 1 0 62z m-250 750a500 500 0 1 1 500-500 500 500 0 0 1-500 500z m0-938a438 438 0 1 0 438 438 438 438 0 0 0-438-438z" horiz-adv-x="1000" />

<glyph glyph-name="bags" unicode="&#xe834;" d="M938 336l-25-137c0-1-1-1-1-1l-37-223c0-69-56-125-125-125l-500 0c-69 0-125 56-125 125l-37 223c-1 0-1 0-1 1l-24 137c0 3 0 6 0 9l0 5c0 69 56 125 125 125l2 0c12 210 146 375 310 375 164 0 298-165 310-375l3 0c69 0 125-56 125-125l-1-5c0-3 1-6 1-9l0 0z m-750-361c0-35 27-63 62-63l500 0c35 0 63 28 63 63l28 169c-90-58-209-106-341-106-132 0-251 48-341 106l29-169 0 0z m312 813c-130 0-236-138-248-313l496 0c-12 175-118 313-248 313l0 0z m313-375l-625 0c-35 0-63-28-63-63l22-134c80-69 208-119 353-119 145 0 273 50 353 119l22 134c0 35-28 63-62 63l0 0z m-313-188c-35 0-62 28-62 63 0 34 27 62 62 62 35 0 63-28 63-62 0-35-28-63-63-63l0 0z" horiz-adv-x="1000" />

<glyph glyph-name="computer-acc" unicode="&#xe835;" d="M938 38l-250 0 0-126 62 0 0-62-500 0 0 62 63 0 0 126-250 0c-35 0-63 28-63 62l0 688c0 34 28 62 63 62l875 0c34 0 62-28 62-62l0-688c0-34-28-62-62-62l0 0z m-563-126l250 0 0 126-250 0 0-126 0 0z m563 844c0 18-14 32-32 32l-812 0c-17 0-31-14-31-32l0-468 875 0 0 468 0 0z m0-531l-875 0 0-94c0-17 14-31 31-31l219 0 375 0 218 0c18 0 32 14 32 31l0 94 0 0z" horiz-adv-x="1000" />

<glyph glyph-name="cosmetics" unicode="&#xe836;" d="M989 446l-435-536 2-3-6-2-37-45c-5-7-12-11-18-11-7 0-13 4-18 11l-468 591c-10 14-12 38-4 53l136 256c8 15 29 27 46 27l309 0c0 0 0 1 0 1 0 0 0-1 0-1l315 0c17 0 37-12 45-27l137-261c8-16 6-39-4-53l0 0z m-495-386l165 415-331 0 166-415 0 0z m142 478l-140 187-140-187 280 0 0 0z m-180-548l-192 485-17 0 0 0-178 0 387-485 0 0z m-279 705l-83-158 146 0-63 158 0 0z m123-150l134 180-206 0 72-180 0 0z m259 180l130-175 70 175-200 0 0 0z m257-23l-65-164 151 0-86 164 0 0z m-71-227l1 0-20 0-194-489 401 489-188 0 0 0z" horiz-adv-x="1000" />

<glyph glyph-name="discount" unicode="&#xe837;" d="M802 268l-311-342c0 0 0-1 0-1-1-1-1-1-1-2 0 0-1 0-2 0-5-5-11-8-19-8 0 0 0-1-1-1 0 0 0 0 0 0 0 0-1 0-1 0 0 0-1 1-2 1-6 0-11 3-15 6-2 1-3 1-5 2-1 1 0 3-1 4 0 0-1 0-1 1l-309 340c-12 12-12 31 0 43 12 12 31 12 43 0l260-286 0 731c0 18 14 32 31 32 17 0 31-14 31-32l0-731 260 286c12 12 31 12 43 0 12-12 12-31 0-43l0 0z" horiz-adv-x="1000" />

<glyph glyph-name="grooming" unicode="&#xe838;" d="M922 667l-431-317 431-317c15-8 21-27 12-42-9-15-29-20-45-12l-452 332-140-103c53-26 90-78 90-139 0-87-73-157-162-157-90 0-162 70-162 157 0 82 66 148 149 155l172 126-171 126c-84 6-150 73-150 155 0 87 72 157 162 157 89 0 162-70 162-157 0-61-37-113-90-139l140-103 452 332c16 9 36 4 45-11 9-15 4-34-12-43l0 0z m-795-598c0-52 44-94 98-94 53 0 97 42 97 94 0 52-44 94-97 94-54 0-98-42-98-94l0 0z m195 562c0 52-44 94-97 94-54 0-98-42-98-94 0-51 44-93 97-93 1 0 2 0 2 0 53 1 96 42 96 93l0 0z" horiz-adv-x="1000" />

<glyph glyph-name="bath-body" unicode="&#xe839;" d="M616 720c-26-12-57-15-89-18-167-8-269-139-274-266l-31 0c-12 0-22-10-22-21l0-69-35 0c-12 0-21-10-21-21l0-258c0-53 44-97 98-97l509 0c54 0 98 44 98 97l0 258c0 11-9 21-21 21l-35 0 0 69c0 11-10 21-21 21l-37 0c-4 48-26 104-61 138-68 58-63 76-36 111 20 18-2 44-22 35l0 0z m-85-60c16 2 33 4 49 6-11-39 8-74 49-108 40-34 60-82 64-122l-397 0c10 129 103 215 235 224l0 0z m-288-314l507 0 0 48-507 0 0-48z m564-279c0-30-25-55-56-55l-509 0c-31 0-56 25-56 55l0 237 621 0 0-237 0 0z" horiz-adv-x="1000" />

<glyph glyph-name="beverages" unicode="&#xe83a;" d="M581 597l0 40c17 7 32 24 32 45 0 27-21 48-48 48l-133 0c-27 0-48-21-48-48 0-21 13-38 32-45l0-40c0-46-11-91-34-131-25-45-38-96-38-147l0-303c0-30 24-54 54-54l200 0c31 0 55 24 55 54l0 303c0 51-13 102-39 147-22 40-33 85-33 131l0 0z m-149 101l131 0c10 0 16-6 16-16 0-10-6-16-16-16l-131 0c-10 0-16 6-16 16 0 10 8 16 16 16z m166-704l-200 0c-12 0-22 10-22 22l0 282c35 11 85 11 117-3 21-10 48-15 77-15 19 0 36 4 52 7l0-269c-1-14-11-24-24-24l0 0z m23 325c-35-11-85-11-117 3-35 16-88 19-130 8 2 42 13 83 34 120 26 45 38 96 38 147l0 37 103 0 0-37c0-51 13-102 38-147 23-40 34-85 34-131l0 0z" horiz-adv-x="1000" />

<glyph glyph-name="kitchenware" unicode="&#xe83b;" d="M938-88l-875 0c-35 0-63 28-63 63l0 625c0 35 28 63 63 63l875 0c34 0 62-28 62-63l0-625c0-35-28-63-62-63l0 0z m0 657c0 17-14 31-32 31l-812 0c-17 0-31-14-31-31l0-563c0-17 14-31 31-31l812 0c18 0 32 14 32 31l0 563 0 0z m-94-281l-63 0c-17 0-31 14-31 31 0 17 14 31 31 31l63 0c17 0 31-14 31-31 0-17-14-31-31-31l0 0z m0 125l-63 0c-17 0-31 13-31 31 0 17 14 31 31 31l63 0c17 0 31-14 31-31 0-17-14-31-31-31l0 0z m-219-375l-437 0c-35 0-63 28-63 62l0 375c0 35 28 63 63 63l437 0c35 0 63-28 63-63l0-375c0-34-28-62-63-62l0 0z m0 406c0 17-14 31-31 31l-375 0c-17 0-31-14-31-31l0-313c0-17 14-31 31-31l375 0c17 0 31 14 31 31l0 313 0 0z" horiz-adv-x="1000" />

<glyph glyph-name="sunglasses" unicode="&#xe83c;" d="M1000 225l0 0-3 0c1-10 3-21 3-31 0-121-98-219-219-219-87 0-161 51-197 125l-168 0c-36-74-110-125-197-125-121 0-219 98-219 219 0 11 2 21 3 31l-3 0 0 1 0 0 188 436 0 1 187 0 0-63-139 0-145-312 818 0-145 312-139 0 0 63 188 0 0-1 0 0 187-437 0 0 0 0 0 0z m-934 0c-2-10-3-21-3-31 0-86 69-156 156-156 86 0 156 69 156 156 0 11-1 21-3 31l-306 0 0 0z m368 0c2-10 4-21 4-31 0-11-2-21-4-31l132 0c-2 10-3 20-3 31 0 11 1 21 3 31l-132 0 0 0z m191-31c0-86 70-156 156-156 87 0 157 69 157 156 0 11-2 21-4 31l-306 0c-2-10-3-20-3-31l0 0z" horiz-adv-x="1000" />

<glyph glyph-name="tablets-accessories" unicode="&#xe83d;" d="M875-150l-500 0-62 0-188 0c-69 0-125 56-125 125l0 625c0 69 56 125 125 125l188 0 62 0 500 0c69 0 125-56 125-125l0-625c0-69-56-125-125-125l0 0z m-750 813c-35 0-62-28-62-63l0-625c0-35 27-62 62-62l188 0 0 750-188 0 0 0z m813-63c0 35-28 63-63 63l-500 0 0-750 500 0c35 0 63 27 63 62l0 625 0 0z m-750-375c-35 0-63 28-63 63 0 34 28 62 63 62 34 0 62-28 62-62 0-35-28-63-62-63l0 0z" horiz-adv-x="1000" />

<glyph glyph-name="watches-men" unicode="&#xe83e;" d="M688 27l0-177-375 0 0 177c-112 65-188 185-188 323 0 138 76 258 188 323l0 177 375 0 0-177c111-65 187-185 187-323 0-138-76-258-187-323l0 0z m-313-115l250 0 0 86c-39-14-81-23-125-23-44 0-86 9-125 23l0-86 0 0z m250 876l-250 0 0-86c39 14 81 23 125 23 44 0 86-9 125-23l0 86 0 0z m-125-125c-173 0-312-140-312-313 0-173 139-312 312-312 173 0 313 139 313 312 0 173-140 313-313 313l0 0z m156-375l-187 0c-17 0-31 14-31 31l0 250c0 17 14 31 31 31 17 0 31-14 31-31l0-219 156 0c18 0 32-14 32-31 0-17-14-31-32-31l0 0z" horiz-adv-x="1000" />

<glyph glyph-name="watches-women" unicode="&#xe83f;" d="M688 14l0-164-313 0 0 164c-111 57-187 171-187 305 0 133 76 247 187 304l0 165 313 0 0-165c110-57 187-171 187-304 0-134-77-248-187-305l0 0z m-250-102l187 0 0 78c-30-9-61-15-94-15-32 0-64 6-93 15l0-78 0 0z m187 813l-187 0 0-77c29 9 61 15 93 15 33 0 64-7 94-15l0 77 0 0z m-94-125c-155 0-281-126-281-281 0-156 126-281 281-281 156 0 282 125 282 281 0 155-126 281-282 281l0 0z m156-250l63 0 0-63-63 0 0 63 0 0z m-67 101l44 44 44-44-44-44-44 44 0 0z m88-265l-44-44-44 44 44 44 44-44 0 0z m-208-23l63 0 0-63-63 0 0 63 0 0z m0 375l63 0 0-63-63 0 0 63 0 0z m-146-352l45 44 44-44-44-44-45 44 0 0z m0 265l45 45 44-45-44-44-45 44 0 0z m21-164l-63 0 0 63 63 0 0-63 0 0z" horiz-adv-x="1000" />

<glyph glyph-name="home-appliances" unicode="&#xe840;" d="M0-150l1000 0 0 1000-1000 0 0-1000z m63 62l875 0 0 876-875 0 0-876z m62 751l188 0 0 62-188 0 0-62z m369-188c101 0 182-82 182-182 0-100-81-182-182-182-100 0-181 82-181 182 0 100 81 182 181 182m0-426c135 0 245 109 245 244 0 135-110 245-245 245-134 0-244-110-244-245 0-135 110-244 244-244" horiz-adv-x="1000" />

<glyph glyph-name="authentic" unicode="&#xe841;" d="M500 788a48 48 0 0 0 31-13 173 173 0 0 1 116-45 173 173 0 0 1 36 4 48 48 0 0 0 11 0 48 48 0 0 0 45-33 173 173 0 0 1 112-112 48 48 0 0 0 31-56 173 173 0 0 1 43-152 48 48 0 0 0 0-64 173 173 0 0 1-41-153 48 48 0 0 0-31-56 173 173 0 0 1-112-111 48 48 0 0 0-45-34 48 48 0 0 0-11 0 173 173 0 0 1-154-38 48 48 0 0 0-64 0 173 173 0 0 1-153 41 48 48 0 0 0-10 0 48 48 0 0 0-46 33 173 173 0 0 1-111 112 48 48 0 0 0-31 56 173 173 0 0 1-41 152 48 48 0 0 0 0 62 173 173 0 0 1 41 154 48 48 0 0 0 31 56 173 173 0 0 1 113 111 48 48 0 0 0 45 33 48 48 0 0 0 11 0 173 173 0 0 1 36-3 173 173 0 0 1 117 43 48 48 0 0 0 31 13m0 62a110 110 0 0 1-74-28 111 111 0 0 0-74-29 111 111 0 0 0-23 3 110 110 0 0 1-129-75 111 111 0 0 0-71-71 111 111 0 0 1-74-128 111 111 0 0 0-26-98 111 111 0 0 1 0-148 111 111 0 0 0 26-98 111 111 0 0 1 74-128 111 111 0 0 0 71-71 110 110 0 0 1 128-74 111 111 0 0 0 98-26 111 111 0 0 1 148 0 111 111 0 0 0 98 26 110 110 0 0 1 128 74 111 111 0 0 0 72 71 111 111 0 0 1 74 128 111 111 0 0 0 26 98 111 111 0 0 1 0 148 111 111 0 0 0-26 98 111 111 0 0 1-75 128 111 111 0 0 0-71 71 110 110 0 0 1-128 74 111 111 0 0 0-24-2 111 111 0 0 0-74 29 110 110 0 0 1-74 28z m-52-699a31 31 0 0 0-22 9l-182 176a31 31 0 0 0 44 45l159-154 285 290a31 31 0 1 0 45-44l-308-312a31 31 0 0 0-21-10z" horiz-adv-x="1000" />

<glyph glyph-name="exchange" unicode="&#xe842;" d="M993 234a31 31 0 0 1 0 44l-187 188a31 31 0 0 1-44-44l134-134h-430a31 31 0 0 1 0-63h430l-134-134a31 31 0 0 1 44-44z m-986 188a31 31 0 0 0 0 44l187 187a31 31 0 0 0 44-44l-134-134h430a31 31 0 0 0 0-62h-430l134-135a31 31 0 0 0-44-44z" horiz-adv-x="1000" />

<glyph glyph-name="check" unicode="&#xe843;" d="M415 95a43 43 0 0 0-30 12l-247 239a43 43 0 0 0 59 63l216-210 389 394a43 43 0 0 0 61-60l-418-425a43 43 0 0 0-30-13z" horiz-adv-x="1000" />

<glyph glyph-name="milkbottle" unicode="&#xe844;" d="M636 375a98 98 0 0 0 11-40v-426h-294v426a98 98 0 0 0 11 40l74 122a29 29 0 1 1-51 31l-74-123a154 154 0 0 1-20-70v-426a59 59 0 0 1 60-59h294a59 59 0 0 1 59 59v426a154 154 0 0 1-18 70l-74 122a29 29 0 1 1-50-31z m-298 166a59 59 0 0 1 59-58h206a59 59 0 0 1 59 58v59a59 59 0 0 1-59 59h-206a59 59 0 0 1-59-59z m265 59v-59h-206v59z m-27 47c4 9 7 20 11 31l4 15a210 210 0 0 1 12 55 103 103 0 1 1-206 0 216 216 0 0 1 12-56l4-13c4-11 7-21 10-31l4-10 0-4a29 29 0 0 1 55 21l-4 12c-4 10-7 19-10 29l-4 12a203 203 0 0 0-9 40 44 44 0 0 0 88 0 188 188 0 0 0-9-39l-3-15c-3-10-6-19-9-29l-5-12a29 29 0 0 1 55-20l5 12z" horiz-adv-x="1000" />

<glyph glyph-name="puzzle" unicode="&#xe845;" d="M402-10h-5c-46 3-94 9-143 17a75 75 0 0 0-71 79c6 45 10 93 14 156a10 10 0 0 1-6 10 11 11 0 0 1-12 0 112 112 0 0 0-64-20 113 113 0 0 0 0 226 114 114 0 0 0 52-13 49 49 0 0 1 18-5 10 10 0 0 1 8 3 12 12 0 0 1 4 10c-3 48-7 99-14 166a75 75 0 0 0 72 77c45 6 90 11 134 14h4a69 69 0 0 0 60-36 67 67 0 0 0-4-74 56 56 0 0 1-10-31 54 54 0 0 1 109 0 56 56 0 0 1-6 25 125 125 0 0 0-11 31 69 69 0 0 0 15 63 68 68 0 0 0 58 24c47-3 96-7 147-14a89 89 0 0 0 59-31 63 63 0 0 0 12-47c-9-51-14-102-18-153a10 10 0 0 1 5-10 11 11 0 0 1 12 0 113 113 0 1 0 12-194 56 56 0 0 1-21 6 11 11 0 0 1-8-4s-2-3-2-10a1329 1329 0 0 1 20-163 59 59 0 0 0-9-50 94 94 0 0 0-61-36c-41-7-82-12-125-15a69 69 0 0 0-62 31 72 72 0 0 0-4 71 55 55 0 0 1 4 25 54 54 0 0 1-108 0 56 56 0 0 1 6-25h0l2-4a67 67 0 0 0-6-69 69 69 0 0 0-57-30z m-217 321a70 70 0 0 0 34-9 68 68 0 0 0 36-64c-3-63-7-113-13-159 0-6 11-12 22-14 48-8 94-13 137-16a11 11 0 0 1 10 5 9 9 0 0 1 0 10l0 4a112 112 0 1 0 202 0 12 12 0 0 1 0-12 10 10 0 0 1 10-4c40 3 80 8 119 15a31 31 0 0 1 22 11 1388 1388 0 0 0-21 173 71 71 0 0 0 20 54 69 69 0 0 0 53 20 117 117 0 0 0 43-12 54 54 0 1 1-5 94 70 70 0 0 0-109 63c4 52 11 105 19 156 0 0 0 0 0 3a31 31 0 0 1-20 9c-49 7-97 12-143 14a10 10 0 0 1-10-4 11 11 0 0 1-2-10 69 69 0 0 1 6-16 113 113 0 1 0-214-53 114 114 0 0 0 20 64 9 9 0 0 1 0 12 11 11 0 0 1-11 7h0c-41-3-83-8-125-14-11-1-22-8-22-14 8-68 12-121 14-171a72 72 0 0 0-22-53 69 69 0 0 0-56-19 108 108 0 0 0-39 12 54 54 0 1 1-25-105 53 53 0 0 1 31 9 70 70 0 0 0 39 14z" horiz-adv-x="1000" />

<glyph glyph-name="pram" unicode="&#xe846;" d="M660 770h-137v-304h-316v82a131 131 0 0 1-91 125l-49 15a24 24 0 1 1-15-46l49-15a82 82 0 0 0 57-79l-5-79v-141a303 303 0 0 1 116-239l2-1 0-3a125 125 0 1 1 242-65l0 3h94l0-3a125 125 0 1 1 242 65l0 3 2 1a303 303 0 0 1 116 239v141a305 305 0 0 1-307 301z m-272-813a82 82 0 1 0 81 83 83 83 0 0 0-81-83z m343 0a82 82 0 1 0 82 83 83 83 0 0 0-83-83z m185 371a255 255 0 0 0-94-198l-2-2-3 3a125 125 0 0 1-87 36 127 127 0 0 1-121-91l0-3h-100l0 3a127 127 0 0 1-121 90 125 125 0 0 1-88-35l-2-2-3 2a255 255 0 0 0-93 198v88h714z m-344 138v256h89a257 257 0 0 0 256-252v-4z m158-557a131 131 0 0 0-128 110h-86a130 130 0 0 0-258 20 129 129 0 0 0 8 47h0a307 307 0 0 0-117 242v141l5 79a78 78 0 0 1-54 75l-49 15a28 28 0 0 0-4 53 28 28 0 0 0 21 1l49-15a134 134 0 0 0 94-129v-78h308v304h141a310 310 0 0 0 309-305v-141a307 307 0 0 0-117-242h0a130 130 0 0 0-122-177z m-221 118h100l0-6a122 122 0 1 1 234 62l-2 5 5 4a299 299 0 0 1 114 236v141a302 302 0 0 1-301 297h-132v-304h-324v86a127 127 0 0 1-89 121l-48 16a20 20 0 0 1-16 0 20 20 0 0 1-10-12 20 20 0 0 1 13-26l49-16a86 86 0 0 0 60-83l-6-79v-141a299 299 0 0 1 115-235l4-4-2-5a122 122 0 1 1 235-63z m221-74a86 86 0 1 0 87 86 86 86 0 0 0-87-86z m0 165a78 78 0 1 1 79-79 78 78 0 0 1-79 79z m-343-165a86 86 0 1 0 86 86 86 86 0 0 0-85-86z m0 165a78 78 0 1 1 78-79 78 78 0 0 1-77 79z m224-49h-104l-2 5a123 123 0 0 1-117 89 122 122 0 0 1-85-35l-5-4-5 4a259 259 0 0 0-94 201v94h721v-94a259 259 0 0 0-94-201l-5-4-5 4a122 122 0 0 1-86 35 123 123 0 0 1-117-89z m-99 8h94a131 131 0 0 0 125 93 129 129 0 0 0 90-36h0a250 250 0 0 1 92 195v84h-707v-85a250 250 0 0 1 92-195h0a129 129 0 0 0 90 37 131 131 0 0 0 125-94z m408 385h-352v263h93a261 261 0 0 0 260-256z m-344 8h336a253 253 0 0 1-252 248h-85z" horiz-adv-x="1000" />

<glyph glyph-name="sport-men" unicode="&#xe847;" d="M827 513c0 177-109 228-256 275l-13 0c0-63-51-114-113-114-63 0-114 51-114 114l-12 0c-136-39-256-98-256-275l127-59 45-250-22-292 463 0-21 292 44 250 128 59z m-109-312l26-351-598 0 26 351-38 210-134 62 0 40c0 188 103 279 302 335l8 2 84 0 0-62c0-29 23-51 51-51 28 0 51 22 51 51l0 62 84 0 9-3c210-66 300-146 300-334l0-40-134-62-37-210z" horiz-adv-x="938" />

<glyph glyph-name="sport-women" unicode="&#xe848;" d="M100 29c-9 94-15 149-29 248-48 331-12 404 170 446 16 7 34-4 37-18 6-16-5-34-21-37-7-2-7-2-15-4-132-31-155-85-113-378 13-93 25-199 37-342 3-17-11-33-27-33l-2 0c-15 0-29 12-29 27-2 32-5 62-8 91z m622 653l0 0 0 0-3-14c-1 0-1 0-1 0-8 2-14 7-18 13-4 6-5 14-2 21 3 16 19 25 35 22 182-43 219-117 172-447-13-95-20-152-29-244-3-31-5-63-8-94 0-16-14-28-29-28l-4 0c-15 3-25 15-25 32 2 33 5 65 8 96 9 94 16 151 29 247 42 293 19 347-113 378-7 2-7 2-15 4l-25 6 18 18 10-10z m-582-781l-28 27 10 11 15 0c0 0 0 0 0 0l3-38z m46 356c-54 62-51 135-5 224 17 33 37 64 70 112 4 5 7 9 13 19 69 98 87 129 93 165 0 17 16 29 30 26 17 0 29-18 26-33-8-51-31-92-103-193-5-6-9-12-14-20-3-4-5-7-10-14 11-30 70-58 201-58 87 0 143 14 174 36 15 11 21 21 23 27-2 3-5 6-9 12-6 9-9 13-12 17-69 98-95 143-103 193-3 15 8 30 23 33 15 3 30-8 33-24 6-38 24-69 93-167 7-11 11-16 14-22 31-44 49-73 65-103 49-92 53-166-3-230-7-7-16-15-24-22 3-53 1-90-7-142-1-7-1-7-2-13-1-9-2-14-2-19-8-54-7-94 9-160 6-16-5-34-24-37l-3 0c-14 0-26 9-28 22-21 86-21 126-8 203 7 44 10 75 9 117-19-5-39-8-62-8-16 0-29 13-29 29 0 17 13 30 29 30 45 0 77 12 101 39 42 49 31 109-25 199-37-43-111-70-234-70-121 0-196 25-234 66-54-91-64-149-23-197 22-26 55-39 100-39 17 0 29-12 29-29 0-17-12-29-29-29-22 0-43 2-62 8-1-42 2-73 10-117 13-75 13-117-8-203-3-14-14-23-29-23l-5 0c-16 3-25 20-22 35 16 69 18 108 10 161 0 5-1 10-3 21-1 6-1 6-2 12-7 52-10 89-6 142-7 6-14 11-20 17l-5 7z" horiz-adv-x="941" />

<glyph glyph-name="offers-general" unicode="&#xe849;" d="M992-4c-8-10-20-14-32-11l-156 36-54-150c-4-12-14-20-27-21-1 0-1 0-2 0-11 0-22 6-27 16l-132 241c-20-4-41-7-63-7-23 0-45 3-66 7l-128-240c-6-11-16-17-28-17-1 0-1 0-2 0-12 1-23 9-27 21l-54 149-156-36c-12-2-24 2-32 12-7 10-8 23-2 34l157 288c-22 48-36 101-36 157 0 207 168 375 374 375 206 0 373-168 373-375 0-55-13-107-34-155l156-290c6-11 5-24-2-34l0 0z m-900 65l115 27c16 3 31-5 37-20l39-110 89 166c-71 26-131 72-174 131l-106-194 0 0z m407 726c-172 0-311-140-311-312 0-172 139-312 311-312 172 0 312 140 312 312 0 172-140 312-312 312l0 0z m302-530c-44-61-105-108-177-133l91-167 39 111c6 15 21 23 37 20l116-27-106 196 0 0z m-302-32c-138 0-249 112-249 250 0 138 111 250 249 250 137 0 249-112 249-250 0-138-112-250-249-250l0 0z m0 438c-103 0-187-84-187-188 0-103 84-187 187-187 103 0 187 84 187 187 0 104-84 188-187 188l0 0z" horiz-adv-x="1000" />

<glyph glyph-name="dairy" unicode="&#xe84a;" d="M642 730c-5-1-288-61-288-61-7-2-14-10-14-17l0-139-140-91c-5-3-8-9-8-15l0-323c0-7 5-14 12-16l267-97c0 0 17-7 21-8 1-1 3-1 6-1 1 0 3 0 4 0 5 2 23 9 23 9l267 97c6 2 11 9 11 16l0 320c0 7-1 11-6 16l-134 168 0 125c0 9-7 17-17 17-1 0-3 0-4 0z m-14-39l0-96-253-69 0 112 253 53z m11-129l118-147-253-91-117 169 252 69z m-286-83l98-141-203 74 105 67z m-126-97l253-92 0-285-253 92 0 285z m541 0l0-285-253-92 0 285 253 92z" horiz-adv-x="1000" />

<glyph glyph-name="dental-care" unicode="&#xe84b;" d="M316 393c14-21 27-45 27-89 0-67 14-102 26-120 13-19 23-30 49-30 26 0 40 19 42 37 1 8 1 17 1 26 1 23 1 48 10 75 4 10 8 22 16 32 4 5 12 10 19 10 2 0 8 0 15-9 7-11 12-23 16-34 9-26 13-57 10-82-2-19 3-33 13-43 12-11 26-12 30-12 24 0 35 10 49 30 12 18 26 53 26 120 0 44 13 67 27 89l2 3c13 21 26 40 26 86l0 7c-2 34-16 58-45 76-24 13-56 21-93 21-27 0-56-5-78-13-17 6-38 11-61 12-1 1-2 1-2 1l-37-1c-1 0-2 0-2 0-27-3-51-10-69-20-29-18-43-42-45-76 0-2 0-5 0-7 0-45 13-65 26-85l2-4z m26 89c1 20 8 32 25 42 11 7 26 11 44 13l33 0c17-1 33-4 45-9l6-2 46-22c3-1 6-2 10-2 7 0 14 4 18 10 5 9 1 20-9 24l-1 1c7 1 13 1 20 1 25 0 48-5 62-14 13-7 24-17 25-42l0-6c0-34-8-46-19-64l-2-2c-15-23-31-52-30-102 0-58-12-85-20-95-6-9-8-11-8-11 0 0 0 0 0 0-1 2-2 5-1 13 3 28-2 61-12 91-4 13-10 27-19 40-12 17-29 26-49 26-20 0-41-10-52-25-11-14-16-29-20-41-10-30-11-58-11-80 0-8-1-16-1-22 0-1 0-1-1-2 0 0 0 0 0 0-1 1-4 4-8 11-7 10-19 37-19 95 0 50-16 79-31 102l-2 3c-11 18-19 30-19 63 0 2 0 4 0 6l0 0z m155-519c0 0 1 0 1 0 2-1 3-1 5-1l2 0c2 0 4 0 6 1 428 132 347 649 347 654-2 8-7 14-14 16l-333 96c-2 1-4 1-6 1l-2 0c-2 0-3 0-5-1 0 0 0 0 0 0l-334-96c-7-2-12-9-13-16-1-5-82-522 346-654l0 0z m-300 634l287 85 0-68c0-10 9-19 19-19 11 0 20 9 20 19l0 68 288-85c4-35 13-137-11-249-37-170-131-284-277-338l0 107c0 10-9 19-20 19-10 0-19-9-19-19l0-106c-146 54-239 168-275 337-25 112-16 215-12 249l0 0z" horiz-adv-x="1000" />

<glyph glyph-name="perfume-men-1" unicode="&#xe84c;" d="M813 537l0-625-4 0c2-5 4-10 4-15 0-26-21-47-47-47l-532 0c-25 0-46 21-46 47 0 5 1 10 3 15l-3 0 0 625c0 32 187 63 187 63l0 62c-35 1-62 42-62 94 0 52 27 94 62 94l250 0c35 0 63-42 63-94 0-52-28-93-63-93l0-63c0 0 188-31 188-63z m-271 250l-84 0-52 0c-17 0-31-14-31-31 0-17 14-31 31-31l32 0 125 0 31 0c17 0 31 14 31 31 0 17-14 31-31 31l-52 0z m-104-156l0-94c0 0-188 0-188-62l0-469 0-62c0-18 77-32 94-32l312 0c18 0 94 14 94 32l0 125 0 406c0 62-187 62-187 62l0 125-125 0 0-31z m250-218l0-375-375 0 0 375 375 0z m-375-63l62 63 0-375-62 62 375 0-63-62 0 375 63-63-375 0z" horiz-adv-x="1000" />

<glyph glyph-name="perfume-women-1" unicode="&#xe84d;" d="M673 480c-38 22-61 64-61 109l0 74c0 16-14 29-30 29l-5 0 0 129c0 16-13 29-29 29l-115 0c-16 0-29-13-29-29l0-129-5 0c-16 0-29-13-29-29l0-74c0-46-23-87-61-109-114-65-184-187-184-317 0-126 63-241 168-309 5-3 11-4 16-4l363 0c6 0 12 2 16 4 106 68 169 183 169 309 0 130-71 252-184 317l0 0z m-210 312l56 0 0-100-56 0 0 100 0 0z m201-884l-346 0c-85 58-135 152-135 255 0 109 59 212 154 266 56 33 91 94 91 160l0 45 125 0 0-45c0-66 35-127 91-160 95-54 155-157 155-266-1-103-51-197-135-255l0 0z" horiz-adv-x="1000" />

<glyph glyph-name="hair-care" unicode="&#xe84e;" d="M679 358c26-28 46-62 56-99 8-26 11-54 10-81-1-22-5-44-12-65-8-24-20-48-35-69-20-27-46-50-74-67-7-4-13-8-20-11-1 0-3-1-4-2-2 0-3-1-5-2-1 0-2 0-4 0l-189 0c-1 0-2 0-3 0-1 0-3 1-4 1-2 1-4 2-6 3-9 4-17 9-25 14-19 12-36 26-51 42-18 21-34 45-45 70-9 22-15 45-18 68-4 34-1 68 8 101 11 36 30 69 56 97 11 12 23 23 36 33l0 104 0 52c0 1 0 1 0 3 0 1 1 2 1 3 2 5 6 8 11 10 1 0 2 1 3 1 1 0 74 0 74 0-1 26 0 51 0 77l-38 3c-1 0-1 0-2 1-2 0-3 0-4 1-5 3-8 7-9 13 0 1 0 3 0 4 0 0 11 54 11 54 1 2 2 4 2 5 3 4 6 6 11 8 1 0 2 0 4 0 0 0 275-22 275-22 3-1 4-1 5-2 5-1 8-5 10-10 0-1 0-2 0-4 1 0 1-53 1-53-1-3-1-5-1-6-2-4-5-8-9-10-2 0-3-1-4-1-2 0-3 0-3 0l-134 10c1-23 0-45 0-68l72 0c3 0 4-1 5-1 5-2 9-5 11-10 0-1 1-2 1-3 0-2 0-2 0-3l0-156c14-10 25-21 36-33z m-92-363c2 1 4 2 6 3 7 4 15 8 21 13 16 10 31 23 43 37 16 17 29 38 38 59 8 18 13 37 15 57 3 29 1 59-7 87-9 30-25 58-46 82-10 11-20 21-32 29-5 4-11 8-17 12l-222 0c-2-1-4-2-5-3-6-4-12-8-17-12-12-9-22-19-32-30-18-22-33-48-41-76-9-30-12-61-8-91 3-19 8-38 16-56 9-22 22-42 38-60 13-14 27-26 43-37 7-4 14-8 22-12 1 0 2-1 4-2l181 0z m-204 484l0-71 226 0 0 71-226 0z m0 33l226 0 0 18-72 0c-26 0-52 0-77 0l-77 0 0-18z m89 127l0-75 49 0 0 71-49 4z m199 18l0 19-244 19-4-19 34-3c27-1 54-4 82-6l132-10z" horiz-adv-x="1000" />

<glyph glyph-name="house-cleaning-1" unicode="&#xe84f;" d="M776 387c-9 34-35 62-77 85-50 26-99 40-144 40-34 0-65-8-88-24-35-22-49-42-62-61-9-11-16-22-28-31-19-14-33-21-48-29-20-10-41-21-72-48-22-19-33-44-33-72l0-125c0-47 31-91 87-119 58-30 113-41 158-41 42 0 76 10 94 23 29 21 41 42 53 62 10 17 19 34 42 53 13 12 27 19 41 27 22 12 44 24 61 49 7 11 19 33 19 62 0 2 0 125 0 125 0 7-1 16-3 24z m-431-52c16 8 32 16 54 33 16 12 26 26 35 39 12 16 24 33 52 51 18 12 42 18 69 18 39 0 83-13 128-36 32-17 52-38 58-62 7-27-7-50-11-56-12-18-28-27-48-38-14-8-31-17-47-31-28-23-40-44-50-62-11-19-20-34-43-51-10-8-35-16-73-16-32 0-83 6-142 36-39 20-63 49-67 79-2 21 5 40 20 53 28 24 46 33 65 43z m385-139c-12-18-28-27-48-38-14-8-31-17-47-31-28-23-40-44-50-62-11-18-20-34-43-51-25-19-114-31-215 21-43 22-67 53-67 86l0 44c12-12 29-25 51-37 65-33 122-40 158-40 39 0 74 8 94 23 30 21 41 42 53 62 10 17 19 34 42 53 13 11 28 19 41 27 15 8 30 16 44 29l0-25c0-8 0-14 0-19 0-20-9-36-13-42z m-308 329c56 0 102 46 102 103 0 56-46 102-102 102-57 0-103-46-103-102 1-57 46-103 103-103z m0 169c37 0 67-30 67-66 0-37-30-67-67-67-37 0-67 30-67 67 0 36 30 66 67 66z m-17-66c0 9 8 16 17 16 10 0 18 8 18 18 0 10-8 18-18 18-29 0-53-23-53-52 0-10 8-18 18-18 10 0 18 8 18 18z m-108-202c31 0 56 25 56 57 0 31-25 56-56 56-31 0-57-25-57-56 0-32 25-57 57-57z m0 78c11 0 21-10 21-21 0-12-10-21-21-21-12 0-21 9-21 21 0 11 9 21 21 21z" horiz-adv-x="1000" />

<glyph glyph-name="shoe-men" unicode="&#xe850;" d="M438 600c-54-106-106-124-250-167-25-1-75-17-125-83-27-2-53-53-63-167 3 32 0-83 0-83 0 11 1000 0 1000 0-8 0 0 83 0 83-22 207-39 313-125 417-30 0-34-4-62 0 12-97-50-158-125-167-68 9-130 70-125 167-20-4-63 0-63 0-28 0-32-1-62 0z m91-125c15-67 77-114 175-125 48 11 111 59 117 125 90-65 106-71 117-187l-875 0c3 47 21 14 58 62 25-6 70 5 117 0 108 37 165 53 233 125l58 0z m409-250l0-62-875 0 0 62 875 0z" horiz-adv-x="1000" />

<glyph glyph-name="shoe-women" unicode="&#xe851;" d="M31 387c40-72 37-161 41-261 1-40 8-78 11-122 2-17 15-29 32-29l40 0c9 0 17 3 23 10 6 6 9 14 8 23-9 259 13 307 27 312 24 9 98-84 162-166 40-51 86-109 137-168 6-7 15-11 24-11l71 0c134 0 230 3 331 24 5 0 9 4 12 8 23 36 29 70 17 100-18 47-76 81-189 113-5 1-12 2-17 0-118-66-202 74-373 292-55 70-118 138-182 209-10 11-45 7-58 0-115-65-195-194-117-334z m750-216c92-27 138-45 150-78 7-17 9-32-4-55-111-21-220-5-389-4-51 57-94 93-134 143-96 123-154 197-204 178-39-14-61-77-52-342l-8 0c-3 41 9 139 8 177-3 104-53 143-65 224-11 80-62 189 79 272 62-69 117-140 171-208 135-173 247-316 368-316 25 1 57-3 80 9z" horiz-adv-x="1000" />

<glyph glyph-name="laundry" unicode="&#xe852;" d="M120-38l768 0 0 768-768 0 0-768z m48 48l0 672 672 0 0-672-672 0z m48 576l144 0 0 48-144 0 0-48z m284-144c77 0 140-63 140-140 0-77-63-139-140-139-77 0-140 62-140 139 0 77 63 140 140 140m0-327c103 0 188 84 188 187 0 104-85 188-188 188-104 0-188-84-188-188 0-103 84-187 188-187m-170 182c4-3 11-7 21-11 40-16 92-14 151 18 42 22 80 16 114-7 12-8 20-16 24-21l15-17 33 32-15 18c-6 7-17 18-33 28-46 32-101 40-158 10-48-26-86-28-115-16-6 2-10 4-11 5l-18 14-26-39 18-14z" horiz-adv-x="1000" />

<glyph glyph-name="disposables" unicode="&#xe853;" d="M299 658c-59 0-107-48-107-107l0-500c0-4 2-8 5-11 3-3 7-5 11-5l408 0c4 0 8 2 11 5 3 3 5 7 5 11l0 507c3 36 32 63 68 63 36 0 66-27 68-63l0-347c0-14-12-26-26-26-14 0-26 12-26 26l0 154c0 8-7 16-16 16-9 0-16-8-16-16l0-154c0-32 26-58 58-58 32 0 58 26 58 58l0 347c0 55-45 100-100 100l-401 0z m301-591l-67 0 0 52c0 9-7 16-16 16-8 0-16-7-16-16l0-52-66 0 0 52c0 9-7 16-16 16-9 0-16-7-16-16l0-52-69 0 0 52c0 9-7 16-16 16-9 0-16-7-16-16l0-52-78 0 0 484c0 41 34 75 75 75l328 0c-17-18-27-43-27-68l0-491z" horiz-adv-x="1000" />

<glyph glyph-name="air-treatment" unicode="&#xe85c;" d="M414 738c-65 0-118-53-118-117 0-41 23-76 56-97-29-27-56-63-56-109l0-389c0-31 25-56 56-56l283 0c31 0 56 25 56 56l0 232c0 65-36 104-69 136-33 31-62 58-70 107l0 88 128 0c12 0 21 9 21 21l0 107c0 12-9 21-21 21l-266 0z m245-43l0-64-128 0c-12 0-22-9-22-21l0-64-95 0c-42 0-75 34-75 75 0 41 33 74 75 74l245 0z m-245-192l95 0 0-5c0-1 1-2 1-3 10-64 50-101 82-132 32-31 56-55 56-105l0-232c0-8-5-13-13-13l-283 0c-8 0-13 5-13 13l0 389c0 35 27 66 57 92 7-1 12-4 18-4z" horiz-adv-x="1000" />

<glyph glyph-name="arabic-perfume" unicode="&#xe85d;" d="M592 516l24 0c10 0 16 6 16 16l0 81c0 10-6 16-16 16l-42 0 40 87c2 4 2 11-1 16-3 3-8 6-13 6l-202 0c-4 0-11-3-12-8-4-5-4-10-2-16l40-86-42 0c-9 0-16-7-16-16l0-82c0-10 7-16 16-16l24 0c-1-70-35-141-92-192-48-42-74-98-74-157 0-80 50-155 131-195 2-2 5-2 7-2l243 0c3 0 5 0 6 2 80 40 131 115 131 195 1 61-25 117-73 159-58 51-91 120-93 192z m-168 190l150 0-35-77-80 0-35 77z m-26-158l0 49 202 0 0-49-202 0z m220-546l-237 0c-67 35-109 98-109 165 0 49 22 97 62 133 64 57 103 136 104 216l122 0c2-80 38-159 104-216 40-37 62-84 62-133 0-67-41-130-108-165z" horiz-adv-x="1000" />

<glyph glyph-name="babybath" unicode="&#xe85e;" d="M356 419l20-1c0 0 0 0 0 1 3 71 64 126 140 126 76 0 137-55 140-126 0-1 0-1 0-1l20 1 0 0 20 0c-3 87-73 156-162 164l0 24c0 28-25 51-55 51-30 0-54-23-54-51l0-13 40 0 0 13c0 7 7 13 14 13 8 0 14-6 14-13l0-25c-87-10-154-78-157-163l20 0 0 0z m196-1c0-13 11-24 24-24 13 0 24 11 24 24 0 13-11 24-24 24-13 0-24-11-24-24z m-120 0c0-13 11-24 24-24 13 0 24 11 24 24 0 13-11 24-24 24-13 0-24-11-24-24z m288 192c27 0 48 22 48 48 0 27-21 48-48 48-26 0-48-21-48-48 0-26 22-48 48-48z m0 72c13 0 24-11 24-24 0-13-11-24-24-24-13 0-24 11-24 24 0 13 11 24 24 24z m0-192c0-40 32-72 72-72 40 0 72 32 72 72 0 40-32 72-72 72-40 0-72-32-72-72z m72 24c13 0 24-11 24-24 0-13-11-24-24-24-13 0-24 11-24 24 0 13 11 24 24 24z m7-296l0-27c0-92-81-167-181-167l-228 0c-100 0-181 75-181 167l0 27-28 0c-4 0-9 1-13 1l0-28c0-113 100-205 222-205l228 0c122 0 222 92 222 205l0 35c-10-5-22-8-35-8l-6 0z m13 152l-616 0c-42 0-76-32-76-72 0-36 28-65 64-71 4-1 8-1 12-1l616 0c12 0 24 3 34 8 25 12 42 36 42 64 0 40-34 72-76 72l0 0z m-2-96l-612 0c-16 0-30 11-30 24 0 13 14 24 30 24l612 0c17 0 30-11 30-24 0-13-13-24-30-24l0 0z" horiz-adv-x="1000" />

<glyph glyph-name="babyfood" unicode="&#xe85f;" d="M476 11c21 28 88 134 107 159 46 69 112 139 183 197 12 9 36 38 16 71 0 0 59 58 44 128-2 11 3 22 12 29 25 19 36 50 29 81-7 28-29 50-57 57-31 7-63-4-81-29-16-21-43-11-50-11-66 0-107-45-107-45-32 20-61-4-70-16-59-72-129-137-198-184-25-18-130-85-159-107-21-16-68-78-10-137l203-203c56-56 120-14 138 10l0 0z m218 639c26-3 52 7 68 29 9 11 23 16 38 13 12-3 23-14 26-26 4-18-4-31-13-38-22-16-33-42-29-68 5-33-6-66-30-90l0 0-150 150c0 0 41 36 90 30l0 0z m-326-620l-203 204c-31 32-6 65 6 73 27 21 132 88 158 106 71 49 144 117 205 192 3 4 13 12 23 2l184-184c10-11 2-20-1-23-75-61-143-134-192-206-19-26-85-131-106-158-9-13-42-37-74-5l0-1z m182 443l-24 24c-8 8-21 8-30 0-8-8-8-22 0-30l24-24c13-12 26-4 30 0 8 9 8 22 0 30z m-70-70l-24 23c-9 9-22 9-30 0-8-8-8-21 0-29l24-24c12-13 25-5 30 0 8 8 8 21 0 30z m-71-71l-24 24c-8 8-22 8-30 0-8-9-8-22 0-30l24-24c12-12 26-4 30 0 8 8 8 22 0 30z m-71-71l-24 24c-8 8-21 8-30 0-8-8-8-22 0-30l24-24c13-12 26-4 30 0 8 8 8 22 0 30z" horiz-adv-x="1000" />

<glyph glyph-name="cereals" unicode="&#xe860;" d="M656 533l0-18-33 0c-41 0-79-19-104-48l0 53c30 27 44 57 43 88-2 51-47 85-49 87-5 4-13 4-19 0-2-2-46-36-48-87-1-31 13-61 42-88l0-53c-25 29-62 48-104 48l-33 0 0 17c0 9-7 16-15 16-9 0-16-7-16-16l0-32c0-75 61-136 135-136l33 0 0-60c-25 30-62 49-104 49l-33 0 0 22c0 9-7 16-15 16-9 0-16-7-16-16l0-32c0-1 0-2 1-3-1-1-1-2-1-3 0-74 61-135 135-135l33 0 0-60c-25 30-62 49-104 49l-33 0 0 12c0 8-7 15-15 15-9 0-16-7-16-15l0-33c4-73 63-130 135-130l33 0 0-30c0-8 7-16 16-16 8 0 16 8 16 16l0 30 32 0c72 0 131 57 135 128 0 1 1 35 1 35 0 8-8 15-16 15-9 0-16-7-16-15l0-12-33 0c-41 0-79-19-104-49l0 60 33 0c75 0 135 61 135 135 0 1 0 2 0 3 0 1 0 2 0 2l1 33c0 9-8 16-16 16-9 0-16-7-16-16l0-22-33 0c-41 0-79-19-104-49l0 60 33 0c75 0 135 61 135 136l0 33c1 8-7 15-15 15-9 0-16-7-16-15z m-152 128c10-11 25-30 26-54 1-20-8-40-26-59 0 0 0 0 0 0-19 19-27 39-27 58 1 25 16 44 27 55z m-49-265c-52 0-95 38-102 88l31 0c52 0 95-38 103-88l-32 0z m0-162c-52 0-95 38-102 88l31 0c52 0 95-39 103-88l-32 0z m0-163c-52 0-95 39-102 88l31 0c52 0 95-38 103-88l-32 0z m168 88l32 0c-8-49-51-88-103-88l-31 0c7 50 50 88 102 88z m0 163l32 0c-8-50-51-89-103-89l-31 0c7 50 50 89 102 89z m-71 74l-31 0c7 50 50 88 102 88l32 0c-8-50-51-88-103-88z" horiz-adv-x="1000" />

<glyph glyph-name="coffee" unicode="&#xe861;" d="M120 460c0-5 2-11 6-15 3-3 9-5 14-4 73 12 152 26 233 26 48 0 95-5 140-12-4-3-8-7-12-11-13-13-25-27-36-42-30-3-61-5-92-5-81 0-160 14-233 26-1 0-2 0-3 0-5 0-9-2-13-6-3-3-4-8-4-13 13-112 123-190 253-190 17 0 33 1 48 4 6-27 16-53 35-76 3-5 8-7 14-7 5 0 10 3 13 8 45 63 95 120 147 172 54 54 111 102 172 146 5 4 7 9 7 14 1 6-2 11-6 14-37 29-81 39-124 39-23 0-46-4-69-12-37 81-130 134-237 134-130 0-240-78-253-190z m459 42c-10-5-19-11-28-17-56 9-115 17-178 17-76 0-147-12-212-23 22 79 107 136 212 136 96 0 175-47 206-113z m183-28c-55-41-107-85-157-135-47-47-93-99-134-156-14 25-19 53-19 83 0 51 26 106 74 153 46 47 102 74 153 74 30 0 58-5 83-19z m59-33c-43-64-85-125-137-180-49-52-107-98-180-137-5-2-9-8-9-14-1-6 2-11 7-15 34-27 73-38 116-38 65 0 132 30 186 84 57 56 84 128 84 195 0 41-14 75-39 107-4 4-10 7-15 6-6-1-10-3-13-8z m32-105c0-58-23-120-74-171-48-48-107-73-161-73-28 0-51 4-73 16 65 38 118 81 164 129 48 50 87 106 125 162 12-19 19-39 19-63z m-480 26c24 0 47 1 69 3-16-32-25-65-25-99 0-5 0-9 0-14-14-2-29-3-44-3-105 0-190 56-212 135 65-10 136-22 212-22z" horiz-adv-x="1000" />

<glyph glyph-name="diapers" unicode="&#xe862;" d="M768 672l-519 0c-67 0-121-54-121-120l0-232c0-157 128-285 286-285l189 0c157 0 285 128 285 285l0 232c0 66-54 120-120 120z m-391-590l-4 4c-111 19-197 117-197 234l0 16c0 0 1 0 1 0 73-8 142-53 179-119 24-44 31-92 21-135l0 0z m463 238c0-117-85-215-197-234l-3-4c-11 43-3 91 21 135 37 66 105 111 178 119 1 0 1 0 1 0l0-16z m0 64c-90-7-176-63-221-144-28-50-37-106-28-158l-165 0c9 52-1 108-29 158-45 81-130 137-221 144l0 168c0 40 33 72 73 72l519 0c40 0 72-32 72-72l0-168z m-448 54l233 0 0 158-233 0 0-158z m47 110l138 0 0-62-138 0 0 62z" horiz-adv-x="1000" />

<glyph glyph-name="personal-care" unicode="&#xe863;" d="M629 730c78 0 141-64 141-142 0-78-63-142-141-142-78 0-142 64-142 142 0 78 64 142 142 142z m0-50c-51 0-92-41-92-92 0-51 41-92 92-92 51 0 91 41 91 92 0 51-40 92-91 92z m-309-84c101 0 183-82 183-183 0-101-82-184-183-184-101 0-184 83-184 184 0 101 83 183 184 183z m0-50c-74 0-134-59-134-133 0-74 60-134 134-134 74 0 133 60 133 134 0 74-59 133-133 133z m342-167c115 0 209-93 209-208 0-115-94-209-209-209-115 0-209 94-209 209 0 115 94 208 209 208z m0-50c-88 0-159-70-159-158 0-88 71-159 159-159 88 0 159 71 159 159 0 88-71 158-159 158z" horiz-adv-x="1000" />

<glyph glyph-name="home-supplies" unicode="&#xe864;" d="M325 594c-49 0-94-29-113-75l-74-173c-11-17-18-37-18-58 0-57 46-103 103-103l439 0c34 0 62 27 62 62 0 34-28 62-62 62l-445 0c-11 0-21-9-21-21 0-12 10-21 21-21l445 0c11 0 19-9 19-20 0-11-8-20-19-20l-439 0c-33 0-61 27-61 61 0 34 28 61 61 61l439 0c56 0 102-46 102-102 0-56-46-102-102-102l-480 0c-11 0-21-9-21-21 0-12 10-21 21-21l480 0c66 0 121 44 138 104l75 225c28 82-36 163-117 162l-433 0z m466-283c-24 47-73 80-129 80l-439 0c-7 0-14-1-21-2l49 113c12 30 42 50 74 50l153 0 0-34c0-12 10-21 21-21 12 0 21 9 21 21l0 34 43 0 0-85c0-12 9-21 21-21 12 0 21 9 21 21l0 85 153 0c65-1 93-66 77-107l-44-134z" horiz-adv-x="1000" />

<glyph glyph-name="house-cleaning" unicode="&#xe865;" d="M787 503c-2 11-12 21-24 21l-73 0 0 15c0 102-84 186-187 186-104 0-187-84-187-186l0-15-73 0c-13 0-23-9-25-21l-50-439 0-3c0-52 42-94 95-94l479 0c52 0 95 42 95 94l0 2-50 440z m-44-485l-480 0c-25 0-45 20-46 43l48 415 51 0 0-127c0-14 12-25 24-25 14 0 25 12 25 25l0 126 274 0 0-127c0-14 12-25 24-25 14 0 25 12 25 25l0 127 51 0 48-414c0-24-19-43-44-43l0 0z m-240 658c76 0 137-61 137-136l0-15-274 0 0 15c0 75 61 136 137 136l0 0z m-115-312c0-57-85-57-85 0 0 56 85 56 85 0m321-7c0-57-85-57-85 0 0 56 85 56 85 0" horiz-adv-x="1000" />

<glyph glyph-name="luggage" unicode="&#xe866;" d="M792-14l-576 0c-53 0-96 43-96 96l0 432c0 53 43 96 96 96l144 0 0 72c0 13 11 24 24 24l240 0c13 0 24-11 24-24l0-72 144 0c53 0 96-43 96-96l0-432c0-53-43-96-96-96z m-480 48l384 0 0 336-384 0 0-336z m-144 48c0-26 22-48 48-48l48 0 0 336-96 0 0-288z m432 576l-192 0 0-24 0 0 0-24 0 0 0 0 192 0 0 48z m240-144c0 27-21 48-48 48l-576 0c-26 0-48-21-48-48l0-96 672 0 0 96z m0-144l-96 0 0-336 48 0c27 0 48 22 48 48l0 288z" horiz-adv-x="1000" />

<glyph glyph-name="perfume-men" unicode="&#xe867;" d="M766 487l-131 0 0 187c0 36-29 56-56 56l-159 0c-21 0-57-14-57-56l0-187-131 0c-31 0-56-26-56-57l0-412c0-31 25-56 56-56l534 0c31 0 56 25 56 56l0 412c0 31-25 57-56 57z m-365 165c0 38 18 41 38 41l120 0c26 0 39-13 39-41l0-165-197 0 0 165z m384-615c0-21-17-38-38-38l-496 0c-21 0-37 17-37 38l0 375c0 20 16 37 37 37l496 0c21 0 38-17 38-37l0-375z m-281 618c-31 0-56-25-56-56 0-31 25-56 56-56 31 0 56 25 56 56 0 31-25 56-56 56z m0-75c-10 0-19 9-19 19 0 10 9 19 19 19 10 0 19-9 19-19 0-10-9-19-19-19z" horiz-adv-x="1000" />

<glyph glyph-name="perfume-women" unicode="&#xe868;" d="M379 717l0-139c0-6 2-11 6-15 4-4 9-7 15-7 6 0 11 3 15 7 4 4 6 9 6 15l0 117 86 0 0-117c0-6 2-11 6-15 4-4 9-7 15-7 6 0 11 3 15 7 4 4 6 9 6 15l0 139c0 11-9 21-21 21l-128 0c-1 0-1 0-2 0-11-1-19-10-19-21z m222-15c-5-3-8-8-9-13-1-6 1-12 4-16 7-10 20-12 30-6 9 7 13 7 19 7 12 0 23-4 37-9 13-5 29-12 49-12 11 0 30 2 46 16 4 3 7 9 7 14 0 6-1 12-5 16-4 4-9 7-15 7-5 1-11-1-15-5-7-6-10-6-18-6-10 0-20 4-34 10-13 5-31 12-52 12-13 0-29-4-44-15z m0-85c-5-3-8-8-9-14-1-5 1-11 4-16 7-9 20-12 30-5 9 6 13 7 19 7 12 0 23-4 37-9 13-6 29-13 49-13 11 0 30 3 46 16 4 4 7 9 7 15 0 6-1 11-5 16-4 4-9 6-15 7-5 0-11-2-15-5-7-6-10-6-18-6-10 0-20 4-34 9-13 6-31 12-52 12-13 0-29-3-44-14z m-242-105l-30-70c-70-46-121-128-121-218 0-140 115-254 256-254 141 0 256 114 256 254 0 90-51 172-121 218l-30 70c-3 8-11 13-20 13l-170 0c-1 0-2 0-2 0-8-1-15-6-18-13z m34-30l142 0 27-62c1-4 4-7 8-10 59-35 104-104 107-176-58-31-82-29-117-29-42 0-72 14-103 29-30 16-60 34-100 35-26 0-62-2-105-23 8 68 50 131 106 164 4 3 7 6 8 10l27 62z m45-286c31-16 70-34 122-34 30 0 63 0 114 22-19-98-106-171-210-171-109 0-199 80-212 185 45 27 76 28 105 28 26 0 49-13 81-30z" horiz-adv-x="1000" />

<glyph glyph-name="travel-accessories" unicode="&#xe869;" d="M515 735c-7 4-15 4-22 0-153-89-281-217-370-370-4-7-4-15 0-22 89-153 217-281 370-370 7-4 15-4 22 0 153 89 281 217 370 370 4 7 4 15 0 22-89 153-217 281-370 370z m-301-454c83-60 157-134 217-217-83 60-157 134-217 217z m-43 80c82 136 197 250 333 331 139-83 255-199 338-338-81-136-195-251-331-333-84 139-201 256-340 340z" horiz-adv-x="1000" />

<glyph glyph-name="dial-shape" unicode="&#xe86a;" d="M373 500c-12-11-19-27-19-45l0-211c0-18 7-34 19-46 12-12 28-19 46-19l161 0c18 0 34 7 46 19 12 12 19 28 19 46l0 211c0 18-7 34-19 45-12 12-28 19-46 19l-161 0c-18 0-34-7-46-19l0 0z m-44-45c0 49 40 89 90 89l161 0c50 0 90-40 90-89l0-211c0-50-40-90-90-90l-161 0c-50 0-90 40-90 90l0 211z m269 224c0 14-12 26-26 26l-145 0c-14 0-26-12-26-26l0-8c0-28-6-56-18-81 13 4 26 6 39 6l155 0c13 0 27-2 39-6-12 25-18 53-18 81l0 8z m-26-684c14 0 26 12 26 26l0 9c0 27 6 53 17 78-12-4-25-6-38-6l-155 0c-13 0-26 2-38 6 11-24 17-51 17-78l0-9c0-14 12-26 26-26l145 0z m-214 602c12 23 18 48 18 74l0 8c0 28 23 51 51 51l145 0c28 0 51-23 51-51l0-8c0-26 6-51 18-74l11-21c0-1 0-2 0-2l0-1 0 0c38-24 63-67 63-115l0-218c0-48-26-91-64-116l0 0-10-21c-12-22-18-48-18-73l0-9c0-28-23-51-51-51l-145 0c-28 0-51 23-51 51l0 9c0 25-6 51-18 74l-10 20 0 0 0 0c-39 25-64 68-64 117l0 217c0 48 25 91 63 115 0 1 0 2 0 3l11 21z m64-26c-31 0-59-13-80-33-20-21-33-49-33-80l0-217c0-32 13-60 33-80 21-21 49-34 80-34l155 0c31 0 59 13 80 34 20 20 33 48 33 80l0 217c0 31-13 59-33 80-21 20-49 33-80 33l-155 0 0 0z" horiz-adv-x="1000" />

<glyph glyph-name="popular" unicode="&#xe86b;" d="M612 630c-32 28-64 58-93 90-6 7-15 10-25 10-9-1-18-6-23-14-43-66-44-159-3-244 4-8 8-15 12-22l15-30c13-30 12-63-3-90-17-29-50-43-86-37-37 6-66 31-73 64-1 6-2 14-1 23 2 32 5 66 8 93 6 71 6 71-4 80-6 4-14 5-21 1-18-10-32-24-45-37l-2-2c-99-100-121-268-52-390 57-98 168-163 282-163l13 0c118 5 231 80 280 187 28 59 37 126 26 187-15 74-56 146-129 222-25 25-51 48-76 72z m-103-627c-103-5-207 52-257 142-61 106-42 252 44 341l2 2c1 1 2 2 2 2 0-4-1-10-1-15-2-27-5-61-8-94-1-13 0-24 2-34 11-50 53-88 107-96 52-8 101 13 126 57 23 38 25 84 7 126-5 11-12 22-17 32-4 7-7 14-11 22-31 66-33 140-6 192 27-29 57-55 85-82 25-22 51-47 74-71 67-69 106-134 118-199 10-52 3-110-21-162-44-93-142-159-246-163z" horiz-adv-x="1000" />

<glyph glyph-name="stores" unicode="&#xe86c;" d="M344 658l-143 0c-9 0-17-7-19-16l-61-267c-2-8 1-16 8-21 0 0 28-18 71-25l0-270c0-11 9-20 20-20l568 0c12 0 21 9 21 20l0 270c42 7 70 25 70 25 7 5 10 13 9 21l-61 267c-2 9-11 16-20 16l-142 0c-2 0-3 0-4 0-1 0-2 0-3 0l-151 0c-1 0-2 0-3 0-1 0-2 0-3 0l-151 0c-1 0-2 0-4 0-1 0-2 0-2 0z m-19-40l-22-235c-12-6-39-17-72-17-34 0-55 10-67 16l53 236 108 0z m40 0l119 0 0-235c-13-7-39-17-71-17-31 0-56 10-69 16l21 236z m278 0l22-236c-14-6-39-16-70-16-32 0-58 10-71 17l0 235 119 0z m148 0l54-236c-12-6-34-16-68-16-33 0-59 11-72 17l-22 235 108 0z m-378-292c48 0 79 16 91 23 13-7 43-23 91-23 48 0 79 16 91 23 12-7 39-20 82-22l0-248-267 0 0 195c0 12-9 20-20 20l-152 0c-11 0-20-8-20-20l0-195-69 0 0 248c43 2 71 15 82 22 13-7 43-23 91-23z m146-52l0-113c0-11 9-20 20-20l116 0c12 0 21 9 21 20l0 113c0 12-9 20-21 20l-116 0c-11 0-20-8-20-20z m-210-20l112 0 0-175-112 0 0 175z m251 0l75 0 0-73-75 0 0 73z" horiz-adv-x="1000" />

<glyph glyph-name="strap" unicode="&#xe86d;" d="M836 326l-180 0 0 10c0 6-5 11-10 11l-60 0c-6 0-11-5-11-11l0-10-79 0 0 20c0 33-27 60-60 60l-240 0c-33 0-60-27-60-60l0-300c0-33 27-60 60-60l240 0c33 0 60 27 60 60l0 20 80 0 0-10c0-6 5-11 10-11l60 0c6 0 11 5 11 11l0 10 180 0c11 0 20 9 20 20l0 220c-1 11-10 20-21 20z m-380-280c0-11-9-20-20-20l-240 0c-11 0-20 9-20 20l0 300c0 11 9 20 20 20l240 0c11 0 20-9 20-20l0-20-20 0 0 10c0 6-5 11-10 11l-200 0c-6 0-11-5-11-11l0-112c-12-4-20-15-20-28 0-12 8-24 20-28l0-112c0-5 5-10 11-10l200 0c5 0 10 5 10 10l0 10 20 0 0-20z m-230 140c-5 0-10 5-10 10 0 6 5 11 10 11l230 0 0-21-230 0z m190-20l0-100-180 0 0 100 180 0z m-180 60l0 100 180 0 0-100-180 0z m340-120l-120 0 0 60 10 0c6 0 11 5 11 10l0 40c0 6-5 11-11 11l-10 0 0 60 120 0 0-181z m60-40l-40 0 0 260 40 0 0-260z m180 40l-160 0 0 180 160 0 0-180z m-90 600l-570 0c-11 0-20-9-20-20l0-220c0-11 9-20 20-20l570 0c72 0 131 58 131 130 0 72-59 130-131 130z m0-220l-550 0 0 180 550 0c50 0 90-40 90-90 0-51-40-90-90-90z m-150 130c-22 0-40-18-40-40 0-23 18-40 40-40 22 0 40 17 40 40 0 22-18 40-40 40z m0-60c-11 0-20 8-20 20 0 11 9 20 20 20 11 0 20-9 20-20 0-12-9-20-20-20z m-160 60c-22 0-40-18-40-40 0-23 18-40 40-40 22 0 40 17 40 40 0 22-18 40-40 40z m0-60c-11 0-20 8-20 20 0 11 9 20 20 20 11 0 20-9 20-20 0-12-9-20-20-20z m-160 60c-22 0-40-18-40-40 0-23 18-40 40-40 22 0 40 17 40 40 0 22-18 40-40 40z m0-60c-11 0-20 8-20 20 0 11 9 20 20 20 11 0 20-9 20-20 0-12-9-20-20-20z" horiz-adv-x="1000" />

<glyph glyph-name="trending" unicode="&#xe86e;" d="M504-38c-212 0-384 172-384 384 0 212 172 384 384 384 212 0 384-172 384-384 0-212-172-384-384-384z m0 704c-176 0-320-143-320-320 0-176 144-320 320-320 177 0 320 144 320 320 0 177-143 320-320 320z m128-301l0-40c0-18 14-32 32-32 18 0 32 14 32 32l0 116c0 6-1 11-4 17-5 9-16 16-28 16l-117 0c-18 0-32-14-32-32 0-18 14-32 32-32l40 0-83-83-41 42c-13 12-33 12-46 0l-96-96c-12-13-12-33 0-46 7-6 15-9 23-9 8 0 16 3 23 9l73 74 41-42c13-12 33-12 46 0l105 106z" horiz-adv-x="1000" />

<glyph glyph-name="type" unicode="&#xe86f;" d="M485 730c-51 0-92-41-92-91l0-118c-42-12-73-51-73-97l0-156c0-45 31-85 73-97l0-118c0-50 41-91 92-91l36 0c50 0 92 41 92 91l0 118c42 12 73 51 73 97l0 156c0 45-31 85-73 97l0 118c0 50-42 91-92 91l-36 0z m36-731l-36 0c-31 0-55 24-55 54l0 115 146 0 0-115c0-30-25-54-55-54z m128 425l0-156c0-35-28-64-64-64l-164 0c-36 0-64 29-64 64l0 156c0 35 28 64 64 64l164 0c36 0 64-29 64-64z m-73 215l0-115-146 0 0 115c0 30 24 54 55 54l36 0c30 0 55-24 55-54z m-62-212c-10 0-18-9-18-19l0-59-32 0c-10 0-19-8-19-18 0-11 9-19 19-19l50 0c10 0 18 8 18 19l0 77c0 10-7 19-18 19z" horiz-adv-x="1000" />

<glyph glyph-name="wearables" unicode="&#xe870;" d="M358 722c-7-1-13-6-15-13l-37-132c-43-16-75-57-75-105l0-251c0-48 32-90 75-105l37-133c2-7 10-13 17-13l238 0c8 0 15 6 17 13l37 133c43 15 75 56 75 105l0 21 19 0c9 0 17 8 17 17 0 9-8 17-17 17l-19 0 0 141 19 0c9 0 17 8 17 17 0 9-8 17-17 17l-19 0 0 21c0 48-32 89-75 105l-37 132c-2 7-9 13-17 13l-238 0c-1 0-1 0-2 0l0 0z m15-35l213 0 29-103-271 0 29 103z m-29-137l271 0c43 0 78-35 78-78l0-251c0-43-35-78-78-78l-271 0c-43 0-78 35-78 78l0 251c0 43 35 78 78 78z m0-441l271 0-29-104-213 0-29 104z m89 377c-7 0-14-4-16-11l-48-120-45 0c-9 0-17-9-17-18 0-9 8-17 17-17l56 0c7 0 14 5 16 11l33 82 49-194c2-7 8-12 16-12 7-1 14 4 16 11l50 144 10-28c2-7 9-12 16-12l48 0c9 0 18 8 18 17 0 9-9 18-18 18l-36 0-22 63c-2 7-9 12-16 12-7 0-14-5-16-12l-47-137-48 190c-1 7-8 13-16 13l0 0z" horiz-adv-x="1000" />

<glyph glyph-name="baby-bedding" unicode="&#xe871;" d="M157 150h689v94h-689v-94z m688 294h-689m67-200h51v196h-51v-196z m168 0h51v196h-51v-196z m168 0h51v196h-51v-196z m168 0h51v196h-51v-196z" horiz-adv-x="1000" />

<glyph glyph-name="baby-care" unicode="&#xe872;" d="M510-24h-19c-105 0-191 86-191 191v368c0 105 86 191 191 191h19c104 0 191-86 191-191v-368c-2-106-87-191-191-191z m-92 548c0 15 12 28 28 28s28-13 28-28m53 0c0 15 13 28 28 28s28-13 28-28m-84-549v232c0 0 7 93-69 163l0 0c-49 26-82 77-82 135 0 84 68 151 151 151s151-68 151-151c0-41-16-79-44-106-10-11-21-19-35-27l0 0c-78-70-73-164-73-164v-232" horiz-adv-x="1000" />

<glyph glyph-name="baby-furniture" unicode="&#xe873;" d="M462 404c-1 0-2 0-4 0l-280 163c-2 1-3 2-3 3 0 2 0 3 1 4 31 48 74 86 126 113 2 1 5 0 7-3l157-273c2-3 1-5 0-7-1 0-3 0-4 0z m0 0c-1 0-2 0-2 0l0 0c-2 0-2 1-3 2l-158 273c-1 1-1 3-1 5 1 1 2 2 4 3 48 25 104 38 160 38 4 0 6-2 6-5v-312c0-1-1-3-2-4-2 0-3 0-4 0z m0 0l0 0c-4 0-6 2-6 5 0 2 1 3 2 5 2 1 4 2 5 1 3-1 4-4 4-7 0-4-2-4-5-4z m0 0h-331c-3 0-5 2-5 5 0 59 17 115 49 166 2 2 5 3 7 1l282-162c2-1 3-3 3-5 0-3-2-5-5-5z m-323 0c39-144 170-243 319-243 150 0 280 99 320 243 0 0-639 0-639 0z m98-261c-47 0-84-38-84-84s37-84 84-84 84 37 84 84-38 84-84 84z m0-110c-15 0-27 12-27 27s12 26 27 26 26-12 26-26c-1-16-12-27-26-27z m-4 30l118 110m329-30c-46 0-84-38-84-84s38-84 84-84 84 37 84 84-38 84-84 84z m0-110c-14 0-26 12-26 27s12 26 26 26 26-12 26-26c0-16-12-27-26-27z m-114 140l118-110m-125-30h-201m516 459l-92-88" horiz-adv-x="1000" />

<glyph glyph-name="baby-grooming" unicode="&#xe874;" d="M558-26l-123 56c-24 11-35 40-24 63l271 604c11 24 40 35 63 24l122-56" horiz-adv-x="1000" />

<glyph glyph-name="baby-oral-care" unicode="&#xe875;" d="M389 505l-18 9c-17 8-23 28-15 45l72 146c8 17 28 23 45 15l17-8c17-8 24-28 16-45l-72-147c-8-16-28-23-45-15z m-207-430l-28 14c-27 13-37 45-24 71l111 224c13 27 45 37 71 24l29-14c26-13 37-45 24-71l-111-224c-13-27-45-37-72-24z m258 167c2-16 4-46 10-74 12-60 37-114 81-157 14-14 29-26 48-32 19-6 27 1 23 21-6 37-5 75 5 111 4 15 11 29 21 41 14 19 36 17 50-1 6-7 11-16 14-25 14-43 18-87 12-132-1-6 0-14 3-17 3-3 13-2 17 0 14 8 29 17 41 28 77 75 113 165 111 271-1 27-4 52-14 76-14 32-34 56-68 66-21 6-43 4-64-2-43-11-85-15-128 0-4 1-9 2-14 3-64 13-117-18-137-80-9-27-10-55-11-97z m307 110c-13-7-68-20-101-18-28 1-56 5-82 15" horiz-adv-x="1000" />

<glyph glyph-name="baby-proofing" unicode="&#xe876;" d="M791 446c-126-134-273-245-413-366-24-20-47-41-72-60-72-58-172-21-181 68-3 20 2 46 13 65 80 154 160 305 240 459 4 6 8 13 12 23m-93-535c0 38-27 65-65 66-37 0-63-26-65-62-1-38 26-66 63-66 39-2 67 25 67 62z m409 400c59 2 85 21 86 61 0 33-26 61-59 63-39 1-62-26-65-80-26 11-53 21-78 34-12 6-11 18-1 27 30 29 61 59 93 84 38 29 84 23 117-11 19-18 35-38 53-58 33-38 30-90-6-124-28-25-55-50-82-75-17-15-28-12-35 9-7 23-15 46-23 70z" horiz-adv-x="1000" />

<glyph glyph-name="biographies--memoirs" unicode="&#xe877;" d="M403 447c-41-19-137-71-177-89-19-9-26-22-28-42-2-28-16-107-19-136-1-6-2-24-5-42-4-31 18-59 49-63h211m112 379c12-6 169-103 188-112m-260 384c15-2 30-2 44-6 36-10 56-37 64-72 17-67 6-129-32-187-39-59-118-58-156-3-36 54-50 114-36 178 12 62 51 90 116 90z m255-387c-8-11-16-21-25-31-1 0-2-2-2-3 27-27 54-54 81-81 12 8 25 16 37 24 2 2 4 4 6 4m-63-51c-8-8-14-17-20-25-10-19-16-38-18-59-2-19-3-37-3-57 0-4-1-4-5-5-64-14-127-34-189-55-25-8-50-16-74-24 0 0-1-1-3-1 1 1 1 3 2 5 21 61 41 123 60 186 7 25 13 50 19 75 1 3 2 4 6 4 19 1 38 1 57 3 30 4 56 13 79 33 1 2 3 3 4 5" horiz-adv-x="1000" />

<glyph glyph-name="books-store" unicode="&#xe878;" d="M358 137h-12c-9 0-16 7-16 16v394c0 9 7 16 16 16h12c8 0 16-7 16-16v-394c0-9-8-16-16-16z" horiz-adv-x="1000" />

<glyph glyph-name="business-money" unicode="&#xe879;" d="" horiz-adv-x="1000" />

<glyph glyph-name="cleaners" unicode="&#xe87a;" d="M352 209c-5 2-6 5-6 9 0 65 0 128 0 193 0 5 1 6 5 8 13 6 20 16 20 31 0 76 0 153 0 229 0 18-14 33-33 33-18 0-32-15-32-34 0-76 0-152 0-228 0-14 6-25 18-30 6-2 6-5 6-11 0-49 0-100 0-149 0-14 0-28 0-41 0-5 0-7-5-8-14-7-20-18-20-32 0-54 0-111 0-164 0-30 16-36 33-38 16-1 32 7 32 34 0 56 0 113 0 169 1 13-5 24-18 29z m454-198c2 27 2 55 2 82 0 50-2 100 0 150 2 49-8 96-32 141-9 18-16 36-26 54-12 25-15 51-15 78-1 49-2 100-4 148 0 4 0 8 0 12 16 7 23 28 13 43-2 2-7 5-11 6-36 0-74 1-110 0-5 0-9-4-12-7-5-10-5-22 0-33 2-4 7-6 14-11 0-2 0-9 0-14-2-54-4-108-5-161-1-27-10-51-21-75-9-20-18-40-28-61-15-33-22-67-22-103 1-76 0-152 0-228 0-6 0-12 1-19 1-25 8-34 29-39h195c23 6 31 14 32 37z" horiz-adv-x="1000" />

<glyph glyph-name="culture" unicode="&#xe87b;" d="M578 94c-201 0-364 163-364 364 0 90 33 174 88 238-107-69-178-189-178-326 0-213 173-386 386-386 171 0 316 112 366 266-66-94-174-156-298-156z m0 0c-201 0-364 163-364 364 0 90 33 174 88 238-107-69-178-189-178-326 0-213 173-386 386-386 171 0 316 112 366 266-66-94-174-156-298-156z m-72 556c-13-8-22-23-22-40 0-26 21-47 47-47 21 0 39 13 45 33m38-228c15 0 25 13 22 27-3 11-12 25-21 37-13 16-29 30-47 41l-38 25-40-25c-21-13-40-31-55-53-5-8-10-17-13-25-3-14 8-27 22-27h170z m163-50c9 0 17 9 14 18-1 8-8 17-14 25-9 11-19 21-31 28l-26 17-26-17c-15-9-28-21-37-35-4-6-7-12-9-17-2-9 5-18 14-18h115z m-391 0c9 0 16 9 14 18-2 8-8 17-14 25-9 11-20 21-32 28l-26 16-26-17c-15-9-28-21-37-35-4-5-7-12-9-17-2-9 5-18 14-18h116z" horiz-adv-x="1000" />

<glyph glyph-name="feeding-nursing" unicode="&#xe87c;" d="M518-25h-36c-78 0-142 64-142 142v239c0 78 64 142 142 142h36c78 0 142-64 142-142v-240c-1-79-65-141-142-141z m86 501c6 12 8 24 8 38 0 44-32 81-77 94v80c0 20-16 37-37 37-20 0-38-16-38-37v-80l-2 0c-44-14-74-52-74-94 0-14 2-26 8-38" horiz-adv-x="1000" />

<glyph glyph-name="health-fitness-dieting" unicode="&#xe87d;" d="M268 464c20 0 37 16 34 41 12-1 22 1 31 9 9 9 11 19 9 32 24-2 39 9 43 34 8-8 16-16 24-24 28-28 45-62 53-100 2-12 2-24 4-35 0-2 1-6 4-7 116-86 223-184 326-286 15-15 30-30 45-45 20-20 21-53 1-74-21-21-53-24-75-3-32 31-64 63-95 95-51 54-102 109-150 167-29 36-57 72-86 109-2 3-4 6-9 6-53 1-97 21-135 57-8 8-15 15-24 24z m123-309c-18 18-36 36-53 53 26 27 94 95 121 122 15-19 32-39 48-59-25-25-91-91-116-116z m303 302c-25-25-92-91-116-116-20 16-40 32-60 48 26 27 95 95 121 122 19-18 36-35 55-54z m-282-474l-280 280c-16 16-16 42 0 58l18 19c16 16 43 16 59 0l280-280c16-16 16-43 0-59l-19-18c-16-16-42-16-58 0z m379 378l-280 280c-16 16-16 43 0 59l19 18c16 16 42 16 58 0l280-280c16-16 16-42 0-58l-18-19c-17-16-43-16-59 0z m-1 151l-128 128c-16 16-16 42 0 58l12 12c16 16 42 16 58 0l127-127c16-16 16-43 0-59l-12-12c-16-16-41-16-57 0z m-525-524l-127 127c-16 16-16 42 0 58l12 12c16 16 42 16 58 0l127-127c16-16 16-42 0-58l-12-12c-16-16-42-16-58 0z" horiz-adv-x="1000" />

<glyph glyph-name="history" unicode="&#xe87e;" d="M780 577c49-62 78-141 78-227 0-202-164-367-367-367s-367 165-367 367 164 367 367 367" horiz-adv-x="1000" />

<glyph glyph-name="languages-art" unicode="&#xe87f;" d="M504 342c3 1 6 1 10 2 23 5 40 26 40 52 0 53 1 108 0 161 0 30-24 54-54 54-107-1-214-1-321 0-31 0-55-24-55-55 0-52 0-106 0-159 0-30 24-55 56-54 21 1 42 0 63 0 2 0 3 0 6 0 0-23 0-46 0-68 0 0 1 0 1-1 0 1 2 2 3 3 17 21 34 41 52 62 2 2 4 4 8 4 26 0 53 0 79 0 2 0 3 0 5 0m99 83c-5-1-10-2-15-3-21-7-36-27-36-51 0-53-1-108 0-161 0-30 24-54 54-53 63 1 125 0 187 0 4 0 7-1 9-4 17-20 35-41 51-61 1-1 3-2 4-4 0 0 0 0 0 0 0 23 0 45 0 68 3 0 4 0 6 0 22 0 42 1 63 0 32-1 55 24 55 55 0 52 0 106 0 159 0 25-16 47-40 52-4 1-10 1-15 1-70 0-141 0-212 0-1 0-4 0-5 0m-18-82c0 0 56 0 137 9m-82 31c0 0-7-83 6-150-21-16-56-26-55 6 0 11 4 22 12 30 16 17 50 40 112 19 16-3 71-45-36-83m16 107c0 0-8-46-49-78" horiz-adv-x="1000" />

<glyph glyph-name="literature-fiction" unicode="&#xe880;" d="M384-26c48 0 96 0 144 0 38 0 63 26 63 63 0 43 0 85 0 127 0 4 0 9-1 13-5 30-29 49-60 49-97 0-194 0-291 0-37 0-62-26-62-63 0-43 0-85 0-127 0-9 1-19 5-28 12-24 32-34 58-34 48 0 96 0 144 0z m0 338c0 0 102 225 314 328m124 85c0 0-452 29-424-373-1 0 435 13 424 373z m-189-205c0 0 86-11 139 13" horiz-adv-x="1000" />

<glyph glyph-name="politics-social-sciences" unicode="&#xe881;" d="M629 87c-86 0-171 0-256 0 0 64 0 127 0 192-11 0-22 0-32 0 0 21 0 42 0 64 106 0 213 0 320 0 0-21 0-43 0-64-11 0-20 0-31 0-1-64-1-128-1-192z m-81 127c0 27-21 49-47 49-27 0-49-21-49-47 0-28 21-49 47-50 27 1 49 21 49 48z m71 129c-17 0-38 0-55 0 0 6 0 65 0 65l0-1c0 0 0-54 0-64-42 0-85 0-128 0 0 9 0 50 0 59 0 15-5 21-20 22-32 1-59 28-60 60-1 31 0 61 0 92 0 13 10 24 24 24 13 0 23-11 24-24 0-23 0-46 0-68 0-24 13-36 36-36 46 0 66 0 113 0 38 0 65-27 67-66 0-10-1-53-1-63z m151-163c-20 0-35 16-35 36 0 19 16 35 35 35 20 0 36-16 36-35-1-20-16-36-36-36z m-59-23c19 0 35-16 35-35 0-19-15-35-35-35-19-1-35 15-35 35 0 19 15 35 35 35z m129 0c19 1 35-15 36-34 1-19-15-35-35-36-19-1-35 15-36 35 0 18 16 34 35 35z m-622 23c-20 0-35 16-35 36 0 19 16 35 35 35 20 0 36-16 36-35-1-20-16-36-36-36z m-59-23c19 0 35-16 35-35 0-19-15-35-35-35-19-1-35 15-35 35 0 19 15 35 35 35z m129 0c19 1 35-15 36-34 1-19-15-35-35-36-19-1-35 15-36 35 0 18 16 34 35 35z m212 361c-26 0-48 22-48 48 0 26 22 48 49 48 26 0 47-22 48-48-1-26-23-48-49-48z m48-304c0-26-22-47-50-47-26 0-47 21-47 49 0 26 23 48 49 48 27-1 48-23 48-50z" horiz-adv-x="1000" />

<glyph glyph-name="religion-spirituality" unicode="&#xe882;" d="" horiz-adv-x="1000" />

<glyph glyph-name="school-supplies" unicode="&#xe883;" d="M702-25h-409c-35 0-63 29-63 63v384c0 112 91 203 203 203h129c112 0 203-91 203-203v-386c0-33-28-61-63-61z m-412 362c0 114 93 207 208 207l0 0c113 0 207-92 207-207m-345 251c0 76 62 137 137 137l0 0c75 0 137-61 137-137m-21-528h-231c-24 0-44 19-44 43v118c0 24 20 43 44 43h231c24 0 43-19 43-43v-118c0-23-20-43-43-43z m-413-26h-19c-17 0-31 14-31 30v152c0 17 14 31 31 31h19c17 0 30-14 30-31v-152c0-16-14-30-30-30z m620 0h-20c-17 0-30 14-30 30v152c0 17 13 31 30 31h19c17 0 31-14 31-31v-152c0-16-14-30-30-30z" horiz-adv-x="1000" />

<glyph glyph-name="science-math" unicode="&#xe884;" d="M739 181l79-149-149 79-472 472c-19 19-19 51 0 70l0 0c19 19 51 19 70 0l472-472z" horiz-adv-x="1000" />

<glyph glyph-name="self-help" unicode="&#xe885;" d="M857 612c-19 12-40 8-53-12-18-26-34-54-50-80-16-24-28-49-48-68-20-21-46-36-68-54-136-121-276 0-276 0-22 18-48 33-68 54-20 20-32 44-48 68-17 27-33 54-50 80-13 20-34 24-53 12-18-12-25-38-13-56 35-52 68-106 105-156 15-20 40-33 61-48 24-18 49-34 72-52 5-4 10-12 10-19 0-53-10-103-19-154-5-32 19-61 51-61l91 1 89-1c33 0 57 29 52 61-10 51-20 100-20 154 0 7 5 15 10 19 23 18 48 35 72 52 21 15 46 28 61 48 37 50 70 104 105 156 12 18 5 43-13 56z" horiz-adv-x="1000" />

<glyph glyph-name="teethers-and-soothers" unicode="&#xe886;" d="M453 611c9 20 15 41 26 57 31 45 78 61 131 57 76-6 133-44 170-110 42-76 22-147-52-199m-202-192c-4-12-7-24-7-36 0-11 0-22 0-32 3-88-54-160-141-178-80-17-164 30-194 107-34 87 7 184 94 222 4 1 9 4 13 6 23 11 43 27 60 45l0 0c13 18 23 36 37 52 22 27 60 36 93 24 17-6 33-14 49-23 23-13 38-34 44-60 9-39-7-70-31-97-7-10-13-19-17-30l0 0z m20 340c7 45 26 66 62 69 38 3 80-25 90-62 4-14 4-29 0-43-6-21-24-32-46-39m-328-261c-72-24-79-112-26-148m46 274c-141 112-221 234-183 290 44 65 231 17 418-108s303-280 260-346c-35-52-161-32-305 41" horiz-adv-x="1000" />

<glyph glyph-name="twitter" unicode="&#xf099;" d="M904 622q-37-54-90-93 0-8 0-23 0-73-21-145t-64-139-103-117-144-82-181-30q-151 0-276 81 19-2 43-2 126 0 224 77-59 1-105 36t-64 89q19-3 34-3 24 0 48 6-63 13-104 62t-41 115v2q38-21 82-23-37 25-59 64t-22 86q0 49 25 91 68-83 164-133t208-55q-5 21-5 41 0 75 53 127t127 53q79 0 132-57 61 12 115 44-21-64-80-100 52 6 104 28z" horiz-adv-x="928.6" />

<glyph glyph-name="facebook" unicode="&#xf09a;" d="M535 843v-147h-87q-48 0-65-20t-17-60v-106h164l-22-165h-142v-424h-171v424h-142v165h142v122q0 104 58 161t155 57q82 0 127-7z" horiz-adv-x="571.4" />

<glyph glyph-name="quote-left" unicode="&#xf10d;" d="M429 314v-214q0-45-32-76t-76-31h-214q-44 0-76 31t-31 76v393q0 58 23 111t61 91 91 61 111 23h35q15 0 26-11t10-25v-72q0-14-10-25t-26-10h-35q-59 0-101-42t-42-101v-18q0-22 16-38t37-16h125q45 0 76-31t32-76z m500 0v-214q0-45-32-76t-76-31h-214q-44 0-76 31t-31 76v393q0 58 23 111t61 91 91 61 111 23h35q15 0 26-11t10-25v-72q0-14-10-25t-26-10h-35q-59 0-101-42t-42-101v-18q0-22 16-38t37-16h125q45 0 76-31t32-76z" horiz-adv-x="928.6" />

<glyph glyph-name="quote-right" unicode="&#xf10e;" d="M429 671v-392q0-58-23-111t-61-91-91-61-111-23h-36q-14 0-25 11t-11 25v71q0 15 11 25t25 11h36q59 0 101 42t42 101v17q0 23-16 38t-38 16h-125q-44 0-76 31t-31 76v214q0 45 31 76t76 32h214q45 0 76-32t32-76z m500 0v-392q0-58-23-111t-61-91-91-61-111-23h-36q-14 0-25 11t-11 25v71q0 15 11 25t25 11h36q59 0 101 42t42 101v17q0 23-16 38t-38 16h-125q-44 0-76 31t-31 76v214q0 45 31 76t76 32h214q45 0 76-32t32-76z" horiz-adv-x="928.6" />

<glyph glyph-name="spinner" unicode="&#xf110;" d="M294 72q0-29-21-50t-51-21q-29 0-50 21t-21 50q0 30 21 51t50 21 51-21 21-51z m277-115q0-29-20-50t-51-21-50 21-21 50 21 51 50 21 51-21 20-51z m-392 393q0-30-21-50t-51-21-50 21-21 50 21 51 50 20 51-20 21-51z m670-278q0-29-21-50t-50-21q-30 0-51 21t-20 50 20 51 51 21 50-21 21-51z m-538 556q0-37-26-63t-63-26-63 26-26 63 26 63 63 26 63-26 26-63z m653-278q0-30-21-50t-50-21-51 21-21 50 21 51 51 20 50-20 21-51z m-357 393q0-45-31-76t-76-31-76 31-31 76 31 76 76 31 76-31 31-76z m296-115q0-52-37-88t-88-37q-52 0-88 37t-37 88q0 51 37 88t88 37q51 0 88-37t37-88z" horiz-adv-x="1000" />

<glyph glyph-name="calendar-empty" unicode="&#xf133;" d="M71-79h786v572h-786v-572z m215 679v161q0 8-5 13t-13 5h-36q-8 0-13-5t-5-13v-161q0-8 5-13t13-5h36q8 0 13 5t5 13z m428 0v161q0 8-5 13t-13 5h-35q-8 0-13-5t-5-13v-161q0-8 5-13t13-5h35q8 0 13 5t5 13z m215 36v-715q0-29-22-50t-50-21h-786q-29 0-50 21t-21 50v715q0 29 21 50t50 21h72v54q0 37 26 63t63 26h36q37 0 63-26t26-63v-54h214v54q0 37 27 63t63 26h35q37 0 64-26t26-63v-54h71q29 0 50-21t22-50z" horiz-adv-x="928.6" />

<glyph glyph-name="instagram" unicode="&#xf16d;" d="M571 350q0 59-41 101t-101 42-101-42-42-101 42-101 101-42 101 42 41 101z m77 0q0-91-64-156t-155-64-156 64-64 156 64 156 156 64 155-64 64-156z m61 229q0-21-15-36t-37-15-36 15-15 36 15 36 36 15 37-15 15-36z m-280 123q-4 0-43 0t-59 0-54-2-57-5-40-11q-28-11-49-32t-33-49q-6-16-10-40t-6-58-1-53 0-59 0-43 0-43 0-59 1-53 6-58 10-40q12-28 33-49t49-32q16-6 40-11t57-5 54-2 59 0 43 0 42 0 59 0 54 2 58 5 39 11q28 11 50 32t32 49q6 16 10 40t6 58 1 53 0 59 0 43 0 43 0 59-1 53-6 58-10 40q-11 28-32 49t-50 32q-16 6-39 11t-58 5-54 2-59 0-42 0z m428-352q0-128-3-177-5-116-69-180t-179-69q-50-3-177-3t-177 3q-116 6-180 69t-69 180q-3 49-3 177t3 177q5 116 69 180t180 69q49 3 177 3t177-3q116-6 179-69t69-180q3-49 3-177z" horiz-adv-x="857.1" />

<glyph glyph-name="google" unicode="&#xf1a0;" d="M429 411h404q7-37 7-71 0-121-51-216t-145-149-215-54q-88 0-167 34t-137 91-91 137-34 167 34 167 91 137 137 91 167 34q167 0 287-113l-117-112q-68 67-170 67-72 0-133-37t-97-98-36-136 36-136 97-98 133-37q48 0 89 14t67 33 46 46 28 49 13 43h-243v147z" horiz-adv-x="857.1" />
</font>
</defs>
</svg>
